<?xml version="1.0" encoding="UTF-8" standalone="no"?>
<!-- Created with Inkscape (http://www.inkscape.org/) -->

<svg
   xmlns:dc="http://purl.org/dc/elements/1.1/"
   xmlns:cc="http://creativecommons.org/ns#"
   xmlns:rdf="http://www.w3.org/1999/02/22-rdf-syntax-ns#"
   xmlns:svg="http://www.w3.org/2000/svg"
   xmlns="http://www.w3.org/2000/svg"
   xmlns:sodipodi="http://sodipodi.sourceforge.net/DTD/sodipodi-0.dtd"
   xmlns:inkscape="http://www.inkscape.org/namespaces/inkscape"
   width="32px"
   height="32px"
   id="svg2985"
   version="1.1"
   inkscape:version="0.48.4 r9939"
   sodipodi:docname="announce.svg">
  <defs
     id="defs2987">
    <inkscape:path-effect
       effect="skeletal"
       id="path-effect3783"
       is_visible="true"
       pattern="m 10.805692,-5.5368009 0,9.9999999 10,-4.99999984 z"
       copytype="single_stretched"
       prop_scale="1"
       scale_y_rel="false"
       spacing="0"
       normal_offset="0"
       tang_offset="0"
       prop_units="false"
       vertical_pattern="false"
       fuse_tolerance="0" />
  </defs>
  <sodipodi:namedview
     id="base"
     pagecolor="#ffffff"
     bordercolor="#666666"
     borderopacity="1.0"
     inkscape:pageopacity="0.0"
     inkscape:pageshadow="2"
     inkscape:zoom="89.582416"
     inkscape:cx="22.919658"
     inkscape:cy="16.348234"
     inkscape:current-layer="layer1"
     showgrid="true"
     inkscape:grid-bbox="true"
     inkscape:document-units="px"
     inkscape:window-width="1920"
     inkscape:window-height="1017"
     inkscape:window-x="1911"
     inkscape:window-y="-9"
     inkscape:window-maximized="1" />
  <metadata
     id="metadata2990">
    <rdf:RDF>
      <cc:Work
         rdf:about="">
        <dc:format>image/svg+xml</dc:format>
        <dc:type
           rdf:resource="http://purl.org/dc/dcmitype/StillImage" />
        <dc:title />
      </cc:Work>
    </rdf:RDF>
  </metadata>
  <g
     id="layer1"
     inkscape:label="Layer 1"
     inkscape:groupmode="layer">
    <path
       style="color:#000000;fill:#000000;fill-opacity:1;fill-rule:evenodd;stroke:none;stroke-width:5.60551167;marker:none;visibility:visible;display:inline;overflow:visible;enable-background:accumulate"
       d=""
       id="path2986"
       inkscape:connector-curvature="0" />
    <path
       style="color:#000000;fill:#363636;fill-opacity:1;fill-rule:evenodd;stroke:none;stroke-width:5.60551167000000030;marker:none;visibility:visible;display:inline;overflow:visible;enable-background:accumulate"
       d=""
       id="path2988"
       inkscape:connector-curvature="0" />
    <path
       style="color:#000000;fill:#363636;fill-opacity:1;fill-rule:evenodd;stroke:none;stroke-width:5.60551167;marker:none;visibility:visible;display:inline;overflow:visible;enable-background:accumulate"
       d="m 14.922252,31.27676 c -1.254364,-0.127533 -3.443126,-0.66778 -3.575913,-0.882634 -0.02983,-0.04826 -0.125102,-0.08775 -0.211722,-0.08775 -0.206267,0 -1.606587,-0.684132 -2.2878065,-1.117718 C 5.1385898,26.828438 2.6785374,22.835542 2.1091359,18.252784 1.4638464,13.059251 3.7571123,7.602274 7.8885793,4.5002173 11.584688,1.7250433 16.205781,0.96105955 20.500883,2.4150834 c 3.366088,1.1395237 6.174678,3.5195491 7.921243,6.7125359 1.792804,3.2775167 2.330254,7.0185527 1.535135,10.6856287 -0.660671,3.047002 -2.450165,6.110192 -4.701166,8.047283 -2.900417,2.495944 -6.777853,3.777772 -10.333843,3.416229 l 0,0 z m 3.480005,-2.785466 c 2.563635,-0.596834 4.757645,-1.911329 6.318274,-3.785462 2.540856,-3.05127 3.504766,-6.939927 2.698124,-10.88492 C 26.849518,11.037464 25.207348,8.3725475 23.023727,6.6888129 18.94516,3.5439351 13.510378,3.5159052 9.3901279,6.6184977 6.311911,8.9364275 4.4045843,13.118219 4.6389586,17.035381 c 0.1938827,3.240412 1.3293683,5.945501 3.4450232,8.207142 1.1529551,1.232513 3.2091272,2.513176 4.7472812,2.956791 0.654561,0.18878 0.962892,0.256341 2.043516,0.447772 0.445355,0.07889 3.004993,-0.03415 3.527478,-0.155792 l 0,0 z"
       id="path3758"
       inkscape:connector-curvature="0" />
    <path
       style="color:#000000;fill:#dd9933;fill-opacity:1;fill-rule:evenodd;stroke:none;stroke-width:5.60551167;marker:none;visibility:visible;display:inline;overflow:visible;enable-background:accumulate"
       d="m 8.3052003,15.210991 8.7517167,-4.375859 0,11.966635 -8.6624127,-3.661433 z"
       id="rect3986"
       inkscape:connector-curvature="0"
       sodipodi:nodetypes="ccccc" />
    <path
       style="fill:none;stroke:#000000;stroke-width:0.89387751px;stroke-linecap:butt;stroke-linejoin:miter;stroke-opacity:1"
       d="m 23.433692,11.139285 c 2.137956,4.729128 0,10.554601 0,10.554601"
       id="path4013"
       inkscape:connector-curvature="0" />
    <path
       style="fill:none;stroke:#000000;stroke-width:0.68232346px;stroke-linecap:butt;stroke-linejoin:miter;stroke-opacity:1"
       d="m 18.619318,13.935863 c 2.212089,2.663189 0,5.94378 0,5.94378"
       id="path4013-1"
       inkscape:connector-curvature="0" />
    <path
       style="fill:none;stroke:#000000;stroke-width:0.83621186px;stroke-linecap:butt;stroke-linejoin:miter;stroke-opacity:1"
       d="m 21.018145,12.941168 c 2.669569,3.31448 0,7.397351 0,7.397351"
       id="path4013-7"
       inkscape:connector-curvature="0" />
    <rect
       style="color:#000000;fill:#dd9933;fill-opacity:1;fill-rule:evenodd;stroke:none;stroke-width:5.60551167;marker:none;visibility:visible;display:inline;overflow:visible;enable-background:accumulate"
       id="rect4051"
       width="1.3395486"
       height="2.7684004"
       x="6.3405299"
       y="15.925418" />
    <path
       style="color:#000000;fill:#363636;fill-opacity:1;fill-rule:evenodd;stroke:none;stroke-width:5.60551167000000030;marker:none;visibility:visible;display:inline;overflow:visible;enable-background:accumulate"
       d="M 12.740432,20.927459 C 10.431943,19.948212 8.5180606,19.136168 8.4873597,19.122917 8.4566588,19.109665 8.413563,18.231053 8.3915912,17.170446 l -0.039949,-1.928377 4.3153464,-2.157125 4.315347,-2.157126 0,5.893893 c 0,3.241641 -0.01005,5.892161 -0.02233,5.890044 -0.01228,-0.0021 -1.911089,-0.80505 -4.219578,-1.784296 l 0,0 z"
       id="path4083"
       inkscape:connector-curvature="0" />
    <path
       style="color:#000000;fill:#363636;fill-opacity:1;fill-rule:evenodd;stroke:none;stroke-width:5.60551167;marker:none;visibility:visible;display:inline;overflow:visible;enable-background:accumulate"
       d="m 6.3463199,17.268106 0,-1.339549 0.6251227,0 0.6251226,0 0,1.339549 0,1.339549 -0.6251226,0 -0.6251227,0 0,-1.339549 z"
       id="path4593"
       inkscape:connector-curvature="0" />
    <path
       style="color:#000000;fill:#cccccc;fill-opacity:1;fill-rule:evenodd;stroke:none;stroke-width:5.60551167;marker:none;visibility:visible;display:inline;overflow:visible;enable-background:accumulate"
       d="m 18.605973,19.811854 -0.193238,-0.135349 0.253279,-0.5121 c 0.783833,-1.584811 0.819123,-3.334771 0.09104,-4.514353 -0.319604,-0.517794 -0.321346,-0.539723 -0.05663,-0.713171 0.203476,-0.133323 0.216163,-0.1248 0.49221,0.330675 0.889436,1.467563 0.907422,3.165476 0.05331,5.032199 -0.162931,0.356096 -0.330098,0.647448 -0.371482,0.647448 -0.04138,0 -0.162201,-0.06091 -0.268482,-0.135349 z"
       id="path4595"
       inkscape:connector-curvature="0" />
    <path
       style="color:#000000;fill:#cccccc;fill-opacity:1;fill-rule:evenodd;stroke:none;stroke-width:5.60551167;marker:none;visibility:visible;display:inline;overflow:visible;enable-background:accumulate"
       d="m 20.974108,20.255633 -0.241202,-0.130935 0.349239,-0.736196 c 1.000929,-2.109957 0.950981,-4.484385 -0.123978,-5.893729 l -0.22385,-0.293483 0.314457,-0.21547 c 0.263648,-0.180654 0.328263,-0.194799 0.399897,-0.08754 1.162313,1.74029 1.406094,3.470445 0.784054,5.564558 -0.241133,0.811781 -0.769954,1.93196 -0.909855,1.92731 -0.05916,-0.002 -0.216101,-0.0625 -0.348762,-0.134511 z"
       id="path4597"
       inkscape:connector-curvature="0" />
    <path
       style="color:#000000;fill:#808080;fill-opacity:1;fill-rule:evenodd;stroke:none;stroke-width:5.60551167000000030;marker:none;visibility:visible;display:inline;overflow:visible;enable-background:accumulate"
       d="m 23.349325,21.625675 -0.277173,-0.08936 0.212346,-0.72758 c 0.385949,-1.322411 0.576006,-2.609407 0.628365,-4.255057 0.06579,-2.067908 -0.149657,-3.610586 -0.675626,-4.83762 l -0.169651,-0.39578 0.385574,-0.138652 0.385575,-0.138652 0.217108,0.589749 c 0.49782,1.352264 0.682993,2.502407 0.684443,4.251181 0.0015,1.835525 -0.24602,3.638589 -0.720297,5.246565 -0.184224,0.624585 -0.210097,0.643689 -0.670664,0.495204 l 0,0 z"
       id="path4599"
       inkscape:connector-curvature="0" />
    <path
       style="color:#000000;fill:#999999;fill-opacity:1;fill-rule:evenodd;stroke:none;stroke-width:5.60551167000000030;marker:none;visibility:visible;display:inline;overflow:visible;enable-background:accumulate"
       d="m 20.964217,20.193802 c -0.148927,-0.108899 -0.140156,-0.155474 0.147643,-0.783985 0.36642,-0.800207 0.624206,-1.661704 0.564991,-1.888145 -0.02363,-0.09034 -0.0044,-0.164263 0.04267,-0.164263 0.04709,0 0.0834,-0.251165 0.08068,-0.558145 -0.0027,-0.30698 -0.0068,-0.748042 -0.009,-0.980137 -0.0073,-0.758249 -0.295625,-1.6124 -0.790862,-2.342695 l -0.17916,-0.264196 0.241717,-0.159406 c 0.132945,-0.08767 0.266593,-0.159671 0.296996,-0.159994 0.140543,-0.0015 0.880248,1.651931 1.019943,2.279832 0.290306,1.304872 0.03804,3.000273 -0.657275,4.417322 -0.337867,0.688573 -0.483665,0.804661 -0.758342,0.603812 z"
       id="path4601"
       inkscape:connector-curvature="0" />
    <path
       style="color:#000000;fill:#999999;fill-opacity:1;fill-rule:evenodd;stroke:none;stroke-width:5.60551167;marker:none;visibility:visible;display:inline;overflow:visible;enable-background:accumulate"
       d="m 18.623934,19.873288 c -0.143096,-0.08979 -0.262342,-0.169751 -0.264991,-0.177699 -0.0026,-0.0079 0.0275,-0.06911 0.06699,-0.135912 0.0395,-0.0668 0.09704,-0.171556 0.12787,-0.232783 0.03083,-0.06123 0.05958,-0.1078 0.06389,-0.103494 0.0043,0.0043 -0.04275,0.1088 -0.104576,0.232208 -0.06182,0.123409 -0.110201,0.225839 -0.107509,0.227622 0.0027,0.0018 0.04042,0.02858 0.08383,0.05955 0.192096,0.137024 0.355213,0.221321 0.399068,0.206234 0.04736,-0.01629 0.234954,-0.355725 0.390467,-0.706521 0.32106,-0.72423 0.513675,-1.413323 0.576863,-2.06377 0.0257,-0.264577 0.02203,-0.789738 -0.0072,-1.032096 -0.08967,-0.743064 -0.327826,-1.388756 -0.759239,-2.058502 -0.118661,-0.184217 -0.183358,-0.243552 -0.250843,-0.230055 -0.05774,0.01155 -0.223062,0.117055 -0.285448,0.182172 -0.08247,0.08608 -0.061,0.182765 0.101026,0.454913 0.03765,0.06324 0.06505,0.118378 0.06089,0.122536 -0.0042,0.0042 -0.04171,-0.04403 -0.08346,-0.107082 -0.04174,-0.06305 -0.117435,-0.168552 -0.168202,-0.23444 -0.05077,-0.06589 -0.0923,-0.123636 -0.0923,-0.128326 0,-0.0068 0.379913,-0.306364 0.490796,-0.386978 0.02327,-0.01691 0.03881,-0.0037 0.120611,0.102614 0.389759,0.506517 0.661725,1.059872 0.808716,1.645451 0.107041,0.426426 0.1345,0.666157 0.133813,1.168219 -4.22e-4,0.308079 -0.0079,0.472442 -0.02833,0.623576 -0.08007,0.592062 -0.245588,1.194688 -0.484638,1.764528 -0.151391,0.36088 -0.467571,0.958488 -0.512114,0.967938 -0.0087,0.0018 -0.132865,-0.07011 -0.27596,-0.159898 z"
       id="path4605"
       inkscape:connector-curvature="0" />
    <path
       style="color:#000000;fill:#999999;fill-opacity:1;fill-rule:evenodd;stroke:none;stroke-width:5.60551167;marker:none;visibility:visible;display:inline;overflow:visible;enable-background:accumulate"
       d="m 21.058117,20.352961 c -0.158797,-0.09636 -0.28526,-0.17866 -0.281031,-0.182889 0.0042,-0.0042 0.05246,0.01714 0.107174,0.04749 0.126928,0.0704 0.320262,0.154903 0.391537,0.17113 0.03815,0.0087 0.06523,0.006 0.08746,-0.0085 0.07893,-0.05172 0.289786,-0.423333 0.462214,-0.814628 0.384917,-0.873499 0.602814,-1.646169 0.707697,-2.509514 0.03504,-0.288451 0.03986,-1.055955 0.0083,-1.318192 -0.114567,-0.951238 -0.410441,-1.766054 -0.963047,-2.652171 -0.06498,-0.104192 -0.132467,-0.205425 -0.149976,-0.224961 -0.0647,-0.07219 -0.138548,-0.04588 -0.442123,0.157497 -0.102786,0.06886 -0.190214,0.121872 -0.194284,0.117802 -0.0041,-0.0041 0.119769,-0.103531 0.275198,-0.221023 l 0.282598,-0.213622 0.119342,0.16058 c 1.055545,1.420284 1.383593,3.110282 0.971937,5.007107 -0.152295,0.701743 -0.45096,1.520008 -0.802396,2.198358 -0.158379,0.305706 -0.251103,0.461835 -0.273924,0.461233 -0.0099,-2.6e-4 -0.147859,-0.07931 -0.306655,-0.175672 l 0,0 z"
       id="path4607"
       inkscape:connector-curvature="0" />
    <path
       style="color:#000000;fill:#999999;fill-opacity:1;fill-rule:evenodd;stroke:none;stroke-width:5.60551167;marker:none;visibility:visible;display:inline;overflow:visible;enable-background:accumulate"
       d="m 23.517513,21.712863 c -0.311997,-0.109996 -0.384366,-0.148897 -0.118661,-0.06378 0.291452,0.09336 0.381287,0.0808 0.464681,-0.06498 0.115398,-0.201718 0.38972,-1.227015 0.544145,-2.033775 0.392363,-2.049829 0.448843,-4.480723 0.143233,-6.164719 -0.09362,-0.515858 -0.250269,-1.084551 -0.463906,-1.684122 -0.155824,-0.437319 -0.233239,-0.644951 -0.244766,-0.656479 -0.0049,-0.0049 -0.133544,0.03577 -0.285917,0.09033 -0.152372,0.05457 -0.28034,0.09591 -0.284373,0.09188 -0.004,-0.004 0.121772,-0.06175 0.279566,-0.128257 0.157795,-0.06651 0.288447,-0.119128 0.29034,-0.116931 0.0019,0.0022 0.04698,0.108369 0.100192,0.235937 0.863479,2.07002 1.094322,4.569074 0.679266,7.353582 -0.129202,0.866786 -0.310821,1.715253 -0.537019,2.508781 -0.106323,0.37299 -0.225088,0.732244 -0.243673,0.737086 -0.0084,0.0022 -0.153795,-0.04486 -0.323108,-0.104555 z"
       id="path4609"
       inkscape:connector-curvature="0" />
    <path
       style="color:#000000;fill:#999999;fill-opacity:1;fill-rule:evenodd;stroke:none;stroke-width:5.60551167;marker:none;visibility:visible;display:inline;overflow:visible;enable-background:accumulate"
       d=""
       id="path4611"
       inkscape:connector-curvature="0" />
    <path
       style="color:#000000;fill:#999999;fill-opacity:1;fill-rule:evenodd;stroke:none;stroke-width:5.60551167;marker:none;visibility:visible;display:inline;overflow:visible;enable-background:accumulate"
       d=""
       id="path4613"
       inkscape:connector-curvature="0" />
    <path
       style="color:#000000;fill:#999999;fill-opacity:1;fill-rule:evenodd;stroke:none;stroke-width:5.60551167;marker:none;visibility:visible;display:inline;overflow:visible;enable-background:accumulate"
       d=""
       id="path4615"
       inkscape:connector-curvature="0" />
    <path
       style="color:#000000;fill:#cccccc;fill-opacity:1;fill-rule:evenodd;stroke:none;stroke-width:5.60551167;marker:none;visibility:visible;display:inline;overflow:visible;enable-background:accumulate"
       d="m 21.021846,12.963468 c 0.03974,-0.03722 0.312133,-0.23854 0.322756,-0.23854 0.0141,0 0.0948,0.102584 0.0948,0.120505 0,0.0067 -0.0085,0.0036 -0.01894,-0.0068 -0.04289,-0.04289 -0.181684,0.001 -0.336258,0.106423 -0.04783,0.03261 -0.09116,0.04543 -0.06236,0.01845 z"
       id="path4619"
       inkscape:connector-curvature="0" />
    <path
       style="color:#000000;fill:#cccccc;fill-opacity:1;fill-rule:evenodd;stroke:none;stroke-width:5.60551167;marker:none;visibility:visible;display:inline;overflow:visible;enable-background:accumulate"
       d=""
       id="path4623"
       inkscape:connector-curvature="0" />
    <path
       style="color:#000000;fill:#cccccc;fill-opacity:1;fill-rule:evenodd;stroke:none;stroke-width:5.60551167;marker:none;visibility:visible;display:inline;overflow:visible;enable-background:accumulate"
       d="m 23.439284,11.155083 c 0.01012,-0.0059 0.103788,-0.04542 0.208139,-0.08779 l 0.189728,-0.07704 0.01966,0.04359 c 0.01081,0.02398 0.01682,0.04643 0.01335,0.0499 -0.0035,0.0035 -0.0096,-0.0041 -0.01366,-0.01686 -0.004,-0.01274 -0.01501,-0.02317 -0.02437,-0.02317 -0.0094,0 -0.101049,0.02763 -0.203755,0.0614 -0.182945,0.06015 -0.226018,0.07153 -0.189083,0.04997 z"
       id="path4625"
       inkscape:connector-curvature="0" />
    <path
       style="color:#000000;fill:#cccccc;fill-opacity:1;fill-rule:evenodd;stroke:none;stroke-width:5.60551167;marker:none;visibility:visible;display:inline;overflow:visible;enable-background:accumulate"
       d=""
       id="path4627"
       inkscape:connector-curvature="0" />
    <path
       style="color:#000000;fill:#cccccc;fill-opacity:1;fill-rule:evenodd;stroke:none;stroke-width:5.60551167;marker:none;visibility:visible;display:inline;overflow:visible;enable-background:accumulate"
       d=""
       id="path4629"
       inkscape:connector-curvature="0" />
    <path
       style="color:#000000;fill:#cccccc;fill-opacity:1;fill-rule:evenodd;stroke:none;stroke-width:5.60551167;marker:none;visibility:visible;display:inline;overflow:visible;enable-background:accumulate"
       d=""
       id="path4631"
       inkscape:connector-curvature="0" />
    <path
       style="color:#000000;fill:#cccccc;fill-opacity:1;fill-rule:evenodd;stroke:none;stroke-width:5.60551167;marker:none;visibility:visible;display:inline;overflow:visible;enable-background:accumulate"
       d="m 23.635061,21.746901 c -0.09094,-0.03085 -0.163462,-0.05799 -0.161153,-0.06029 0.0023,-0.0023 0.04606,0.0037 0.09722,0.01335 0.250518,0.04725 0.302623,-0.02352 0.485813,-0.659854 0.183179,-0.636298 0.358953,-1.439254 0.463072,-2.115371 0.153171,-0.99465 0.227144,-1.992515 0.227154,-3.064217 1.3e-5,-1.405055 -0.124222,-2.415012 -0.423617,-3.443757 -0.09224,-0.316955 -0.326036,-1.003404 -0.423091,-1.242259 -0.02807,-0.06908 -0.03623,-0.10791 -0.01502,-0.07143 0.02229,0.03832 0.190852,0.471046 0.257354,0.660658 0.332701,0.948606 0.542413,1.972938 0.628481,3.069799 0.05718,0.728751 0.05297,1.684941 -0.0109,2.472584 -0.115589,1.425444 -0.432037,3.035229 -0.844837,4.297718 -0.05509,0.168472 -0.07077,0.201201 -0.09588,0.200051 -0.01059,-4.84e-4 -0.09366,-0.02612 -0.184599,-0.05698 l 0,0 z"
       id="path4633"
       inkscape:connector-curvature="0" />
  </g>
  <g
     inkscape:groupmode="layer"
     id="layer2"
     inkscape:label="triangle" />
</svg>
