<?xml version="1.0" encoding="UTF-8" standalone="no"?>
<!-- Generator: Adobe Illustrator 17.0.0, SVG Export Plug-In . SVG Version: 6.00 Build 0)  -->

<svg
   xmlns:dc="http://purl.org/dc/elements/1.1/"
   xmlns:cc="http://creativecommons.org/ns#"
   xmlns:rdf="http://www.w3.org/1999/02/22-rdf-syntax-ns#"
   xmlns:svg="http://www.w3.org/2000/svg"
   xmlns="http://www.w3.org/2000/svg"
   xmlns:sodipodi="http://sodipodi.sourceforge.net/DTD/sodipodi-0.dtd"
   xmlns:inkscape="http://www.inkscape.org/namespaces/inkscape"
   version="1.1"
   x="0px"
   y="0px"
   width="634.76825"
   height="161.67899"
   viewBox="0 0 634.76825 161.67899"
   enable-background="new 0 0 952 361"
   xml:space="preserve"
   id="svg3234"
   inkscape:version="0.48.4 r9939"
   sodipodi:docname="E:\WardDocs\Dev\TN\tn_guru_linearise_v2.5.svg"><metadata
   id="metadata3481"><rdf:RDF><cc:Work
       rdf:about=""><dc:format>image/svg+xml</dc:format><dc:type
         rdf:resource="http://purl.org/dc/dcmitype/StillImage" /><dc:title></dc:title></cc:Work></rdf:RDF></metadata><defs
   id="defs3479" /><sodipodi:namedview
   pagecolor="#ff0000"
   bordercolor="#666666"
   borderopacity="1"
   objecttolerance="10"
   gridtolerance="10"
   guidetolerance="10"
   inkscape:pageopacity="0"
   inkscape:pageshadow="2"
   inkscape:window-width="1920"
   inkscape:window-height="1017"
   id="namedview3477"
   showgrid="false"
   inkscape:zoom="5.6568542"
   inkscape:cx="60.181874"
   inkscape:cy="79.549082"
   inkscape:window-x="-9"
   inkscape:window-y="-9"
   inkscape:window-maximized="1"
   inkscape:current-layer="svg3234"
   fit-margin-top="2"
   fit-margin-bottom="1"
   fit-margin-left="0"
   fit-margin-right="0" />
<g
   id="Calque_2"
   transform="matrix(-1.0742878,0.37355109,0.39100879,1.0263232,172.77737,-150.7449)">
	<g
   id="g3237">
		<path
   style="font-size:medium;font-style:normal;font-variant:normal;font-weight:normal;font-stretch:normal;text-indent:0;text-align:start;text-decoration:none;line-height:normal;letter-spacing:normal;word-spacing:normal;text-transform:none;direction:ltr;block-progression:tb;writing-mode:lr-tb;text-anchor:start;baseline-shift:baseline;color:#000000;fill-opacity:1;fill-rule:nonzero;stroke:none;stroke-width:1;marker:none;visibility:visible;display:inline;overflow:visible;enable-background:accumulate;font-family:Sans;-inkscape-font-specification:Sans"
   d="m 160.1875,94.46875 c -2.33454,-0.06164 -4.68819,0.0096 -7.0625,0.25 -5.69662,0.576601 -10.61332,3.084822 -14.65625,7.15625 -2.41278,2.42903 -4.37422,5.16975 -6,8.15625 -2.28843,4.20332 -4.32481,8.53907 -5.71875,13.15625 -0.5027,1.66389 -1.18934,3.56257 -0.28125,5.53125 -0.3587,1.96972 -0.86509,3.96579 -1.03125,6.03125 -0.19867,2.46972 -0.10457,4.95087 -0.125,7.375 -1.7e-4,0.0205 1.9e-4,0.042 0,0.0625 -1.51224,4.98627 -3.46353,9.91311 -3.96875,15.25 -0.20034,0.0637 -0.41271,0.11001 -0.5625,0.15625 -3.21013,0.99536 -4.82016,5.07561 -2.90625,7.8125 0.5777,0.82546 1.55611,1.37489 2.4375,1.6875 0.97705,0.34745 1.98961,0.23298 2.84375,0.3125 1.18479,0.10969 2.38521,0.23425 3.59375,0.34375 0.16996,0.81983 0.32393,1.55676 0.46875,2.25 0.49431,2.36659 0.10859,4.23815 -1.90625,5.71875 -0.50909,0.37362 -0.87776,0.81697 -1.25,1.1875 -0.0191,0.019 -0.0434,0.044 -0.0625,0.0625 -2.2308,1.45089 -3.88888,3.41198 -4.96875,5.84375 -0.0255,0.0573 -0.069,0.0984 -0.0937,0.15625 -1.56156,1.63585 -2.32926,3.64375 -2.8125,5.71875 -0.007,0.0322 -0.0239,0.0615 -0.0312,0.0937 -1.70314,3.98409 -2.2578,8.20812 -1.84375,12.4375 1.15753,11.82659 6.04815,21.46695 17.65625,26.4375 5.28206,2.26201 10.77849,3.6116 16.65625,2.34375 0.80239,-0.17272 1.72117,-0.16032 2.5625,-0.0312 2.54027,0.39058 5.06851,0.89325 7.625,1.34375 1.1541,0.20313 2.29596,0.3541 3.4375,0.53125 4.99058,0.81163 9.78534,-0.17816 14.34375,-1.3125 l -0.21875,-0.96875 c -4.53159,1.12766 -9.20733,2.08687 -13.96875,1.3125 -1.15246,-0.17885 -2.27635,-0.33238 -3.40625,-0.53125 -2.53951,-0.4475 -5.08452,-0.97958 -7.65625,-1.375 -0.94467,-0.14493 -1.98389,-0.14278 -2.9375,0.0625 -5.61024,1.21015 -10.84731,-0.0613 -16.03125,-2.28125 -11.2739,-4.82745 -15.92603,-14.01359 -17.0625,-25.625 -0.40273,-4.11371 0.14916,-8.18472 1.8125,-12.03125 l 0,-0.0625 0.0312,-0.0312 c 0.47787,-2.08713 1.16615,-3.973 2.65625,-5.46875 l 0.0625,-0.0937 0.0312,-0.0625 c 1.01369,-2.36591 2.61485,-4.2348 4.78125,-5.625 l 0.0312,-0.0312 0.0312,-0.0312 c 0.44684,-0.43404 0.82193,-0.86502 1.21875,-1.15625 2.30716,-1.6954 2.82294,-4.12534 2.28125,-6.71875 -0.16884,-0.80823 -0.32119,-1.61273 -0.53125,-2.625 l -0.0937,-0.375 -0.34375,-0.0312 c -1.34174,-0.12207 -2.66303,-0.22287 -3.96875,-0.34375 -0.97186,-0.0905 -1.8948,-0.0327 -2.59375,-0.28125 -0.74261,-0.26339 -1.5592,-0.77196 -1.9375,-1.3125 -1.48609,-2.12511 -0.20612,-5.49061 2.34375,-6.28125 0.23418,-0.0723 0.48112,-0.1566 0.875,-0.28125 l 0.3125,-0.0937 0.0312,-0.34375 c 0.44283,-5.31892 2.46552,-10.30403 4.03125,-15.5 l 0,-0.0937 0,-0.0625 c 0.0232,-2.48002 -0.0687,-4.93639 0.125,-7.34375 0.16035,-1.99316 0.66277,-4.00245 1.03125,-6.0625 l 0.0312,-0.15625 -0.0625,-0.15625 c -0.83912,-1.62935 -0.25173,-3.23589 0.28125,-5 1.36606,-4.52482 3.35543,-8.76882 5.625,-12.9375 1.58822,-2.9175 3.50653,-5.58453 5.84375,-7.9375 3.90307,-3.930572 8.56387,-6.321601 14.03125,-6.875 9.33075,-0.944573 18.32483,0.506265 26.96875,4.15625 8.61101,3.6357 11.93059,10.78632 13.15625,19.53125 0.34686,2.47601 0.70885,4.96215 0.9375,7.4375 0.25952,2.81394 0.38604,5.65526 0.59375,8.5 0.0608,0.83848 0.14005,1.68979 0.3125,2.53125 0.97067,4.75129 1.98438,9.50339 2.9375,14.25 0.23332,1.16259 0.49585,2.40967 1.6875,3.3125 0.81315,0.61638 1.13274,1.6086 1.28125,2.75 0.1762,1.34931 -0.0125,2.32747 -0.53125,3 -0.51875,0.67253 -1.40251,1.08874 -2.75,1.21875 -2.0533,0.1988 -4.1353,0.25541 -6.1875,0.375 l -0.25,0.0312 L 191.25,163 c -0.72695,1.04092 -1.3915,1.986 -2.1875,3.125 l -0.0937,0.15625 0,0.1875 c 0.22854,2.45508 0.43856,5.11789 0.75,7.78125 0.0918,0.79067 0.52516,1.41482 0.78125,1.96875 1.12668,2.43762 2.37118,4.8097 3.34375,7.25 3.07061,7.70366 3.16101,15.5772 1.25,23.59375 -0.0185,0.0771 -0.13136,0.25069 -0.28125,0.53125 l -0.0625,0.0937 0,0.0625 c -0.72035,4.16886 -2.68118,7.83319 -5,11.375 -2.38596,3.64342 -2.78648,5.06684 -8,7.84375 l 0.46875,0.875 c 5.32648,-2.83709 5.99371,-4.59892 8.34375,-8.1875 2.32582,-3.5525 4.35144,-7.27575 5.125,-11.59375 0.0841,-0.15744 0.28146,-0.35915 0.375,-0.75 1.94699,-8.16745 1.87414,-16.30241 -1.28125,-24.21875 -0.99943,-2.5077 -2.26368,-4.87687 -3.375,-7.28125 -0.29591,-0.64007 -0.63326,-1.22017 -0.6875,-1.6875 -0.30239,-2.58594 -0.52581,-5.1706 -0.75,-7.59375 0.69088,-0.98858 1.30388,-1.84279 1.9375,-2.75 1.9649,-0.11047 3.97486,-0.17892 6,-0.375 1.52351,-0.14699 2.7115,-0.68378 3.4375,-1.625 0.726,-0.94122 0.9478,-2.20406 0.75,-3.71875 -0.16349,-1.2566 -0.56665,-2.58788 -1.6875,-3.4375 -0.90435,-0.68517 -1.04857,-1.55934 -1.28125,-2.71875 -0.95488,-4.75539 -1.99942,-9.47404 -2.96875,-14.21875 -0.15955,-0.77854 -0.22208,-1.59073 -0.28125,-2.40625 -0.20629,-2.82526 -0.33127,-5.68519 -0.59375,-8.53125 -0.23135,-2.50465 -0.59036,-4.99076 -0.9375,-7.46875 -1.25034,-8.92107 -4.78701,-16.5282 -13.75,-20.3125 -6.58956,-2.782511 -13.40263,-4.315093 -20.40625,-4.5 z"
   id="path3239"
   inkscape:connector-curvature="0" />
		
		<path
   d="m 175.282,230.59 c -4.545,1.131 -7.913,1.776 -12.79,0.984 0.252,-0.276 0.505,-0.553 0.757,-0.829 0.826,0.076 1.652,0.152 2.478,0.227 -11.275,-4.911 -18.768,-12.515 -19.165,-25.493 0.24,-0.004 0.48,-0.007 0.72,-0.011 0.222,1.231 0.401,2.472 0.672,3.693 1.541,6.932 4.709,12.77 10.866,16.762 7.071,4.584 11.689,6.669 22.631,0.785 7.281,-3.915 7.987,-6.149 10.686,-11.167 0.013,-0.024 -0.254,-0.199 -0.39,-0.303 0.77,-1.822 1.491,-3.667 2.336,-5.453 0.307,-0.649 0.908,-1.158 1.376,-1.731 -0.739,4.271 -2.748,7.989 -5.082,11.553 -2.368,3.616 -2.894,5.195 -8.164,8.002"
   id="path3243"
   inkscape:connector-curvature="0"
   style="fill:#070707" />
		<path
   d="m 180.515,228.536 c -1.222,0.537 -2.397,1.052 -3.603,1.582"
   id="path3245"
   inkscape:connector-curvature="0"
   style="fill:#070707" />
		<path
   d="m 127.395,142.284 c -0.453,0.038 -0.905,0.075 -1.358,0.113 0.023,-2.463 -0.086,-4.936 0.11,-7.384 0.165,-2.051 0.687,-4.073 1.051,-6.108 0.365,0.122 0.731,0.245 1.096,0.367 -1.547,3.838 -1.617,7.903 -1.772,11.945 -0.012,0.344 0.568,0.711 0.873,1.067 z"
   id="path3247"
   inkscape:connector-curvature="0"
   style="fill:#262626" />
		<path
   d="m 124.564,177.547 c -0.747,1.234 -1.495,2.467 -2.242,3.701 -0.892,0.711 -1.783,1.422 -2.675,2.133 l -0.034,-0.002 c 1.051,-2.453 2.707,-4.392 4.951,-5.832 z"
   id="path3249"
   inkscape:connector-curvature="0"
   style="fill:#4e4e4e" />
		<path
   d="m 117.46,189.042 c -0.217,0.02 -0.435,0.04 -0.652,0.06 0.487,-2.128 1.221,-4.134 2.805,-5.723 l 0.034,0.002 c -0.729,1.887 -1.458,3.774 -2.187,5.661 z"
   id="path3251"
   inkscape:connector-curvature="0"
   style="fill:#4e4e4e" />
		
		<path
   d="m 191.748,215.237 c 0.136,0.104 0.403,0.279 0.39,0.303 -2.699,5.019 -3.405,7.252 -10.686,11.167 -10.942,5.883 -15.56,3.799 -22.631,-0.785 -6.157,-3.992 -9.325,-9.83 -10.866,-16.762 -0.271,-1.22 -0.45,-2.461 -0.672,-3.693 -0.143,-1.546 -0.286,-3.092 -0.429,-4.638 l -0.004,0.048 c 0.111,-0.847 0.222,-1.694 0.333,-2.541 l -0.005,0.046 c 0.114,-0.611 0.228,-1.222 0.342,-1.832 l -0.007,0.056 c 0.688,-2.396 1.375,-4.792 2.063,-7.188 l -0.012,0.054 c 0.219,-0.239 0.491,-0.447 0.65,-0.721 1.389,-2.395 2.762,-4.798 4.12,-7.21 0.108,-0.192 0.063,-0.471 0.09,-0.71 1.644,-1.453 3.289,-2.906 4.933,-4.359 4.639,-2.452 9.607,-3.806 14.802,-4.34 1.319,-0.135 2.674,-0.114 3.993,0.02 0.875,0.089 1.856,0.343 1.926,1.707 -3.164,0.256 -6.237,0.853 -9.148,2.117 -6.99,3.037 -11.774,8.035 -13.779,15.499 -1.683,6.265 -1.739,12.541 -0.127,18.832 2.102,8.204 9.719,14.555 19.321,13.641 1.739,-0.166 3.493,-0.416 5.176,-0.869 4.463,-1.2 7.98,-3.714 10.227,-7.842 z"
   id="path3255"
   inkscape:connector-curvature="0"
   style="fill:#ffffff" />
		<path
   d="m 146.562,205.478 c 0.397,12.978 7.89,20.582 19.165,25.493 -0.826,-0.076 -1.652,-0.152 -2.478,-0.227 -2.987,-1.044 -5.958,-2.066 -8.647,-3.847 -3.753,-2.485 -6.544,-5.773 -8.211,-9.865 -4.951,-12.155 -4.355,-24.015 2.654,-35.257 5.649,-9.06 14.18,-12.5 24.573,-11.858 0.932,0.058 1.837,0.562 2.755,0.859 l -0.006,-0.099 c -2.214,0.198 -4.453,0.248 -6.635,0.625 -3.771,0.652 -7.336,1.908 -10.352,4.394 -2.284,1.022 -3.516,3.164 -5.171,4.854 -0.653,0.86 -1.456,1.646 -1.927,2.596 -1.019,2.054 -2.566,3.897 -2.717,6.326 l 0.012,-0.054 c -1.462,2.174 -2.173,4.563 -2.063,7.188 l 0.007,-0.056 c -0.114,0.611 -0.228,1.222 -0.342,1.832 l 0.005,-0.046 c -0.622,0.78 -0.719,1.629 -0.333,2.541 l 0.004,-0.048 c -0.805,1.506 -0.574,3.076 -0.293,4.649 z"
   id="path3257"
   inkscape:connector-curvature="0"
   style="fill:#fefefe" />
		<path
   d="m 129.328,128.605 c -1.274,0.064 -1.657,-0.493 -1.587,-1.375 0.059,-0.745 0.181,-1.498 0.382,-2.218 1.997,-7.148 5.114,-13.773 9.635,-19.664 2.301,-2.999 5.091,-5.574 8.561,-7.214 7.382,-3.489 16.665,-2.904 23.008,6.111 2.376,3.377 4.097,7.083 5.015,11.12 0.444,1.952 0.101,2.407 -2.125,3.095 -0.355,-0.853 -0.775,-1.718 -1.081,-2.622 -1.439,-4.258 -3.623,-8.014 -6.85,-11.215 -4.358,-4.323 -11.767,-6.729 -19.28,-1.819 -4.439,2.901 -7.622,6.971 -10.239,11.502 -2.224,3.852 -3.818,7.97 -4.885,12.29 -0.158,0.646 -0.352,1.281 -0.554,2.009 z"
   id="path3259"
   inkscape:connector-curvature="0"
   style="fill:#fefefe" />
		<path
   d="m 174.749,119.918 c 0.471,-0.274 0.967,-0.819 1.41,-0.779 3.906,0.347 7.888,0.424 11.682,1.301 6.521,1.507 5.673,1.918 6.356,7.228 0.223,1.736 0.26,3.498 0.329,5.25 0.021,0.55 -0.134,1.107 -0.252,1.979 -4.812,-1.476 -9.572,-2.062 -14.464,-1.718 -1.822,-3.851 -3.065,-7.727 -4.29,-11.611 -0.194,-0.614 -0.519,-1.187 -0.784,-1.779 l 0.013,0.129 z"
   id="path3261"
   inkscape:connector-curvature="0"
   style="fill:#ffffff" />
		<path
   d="m 154.64,169.925 c 0.575,-0.172 1.15,-0.345 1.725,-0.517 -0.163,0.377 -0.229,0.867 -0.509,1.111 -0.751,0.653 -2.196,1.133 -2.271,1.804 -0.142,1.269 -1.48,0.979 -1.699,1.858 -0.134,0.013 -0.267,0.026 -0.401,0.038 0.135,-0.035 0.27,-0.07 0.405,-0.105 -0.56,1.167 -1.201,2.249 -2.856,2.462 0.378,0.328 0.6,0.521 0.825,0.716 -1.362,1.089 -2.725,2.179 -4.091,3.271 0.173,0.331 0.325,0.622 0.558,1.07 -0.399,0.09 -0.755,0.171 -1.112,0.251 -0.505,0.261 0.399,1.539 -1.089,1.18 0.124,0.753 0.237,1.435 0.359,2.175 -2.035,0.728 -0.774,3.681 -3.062,4.506 0.166,0.41 0.401,0.988 0.635,1.566 -0.213,0.232 -0.426,0.464 -0.639,0.695 0,0 -0.002,0.001 -0.002,0.001 -0.122,0.008 -0.243,0.017 -0.365,0.025 0.057,0.111 0.114,0.222 0.171,0.333 0.08,0.508 0.367,1.106 0.195,1.505 -0.333,0.774 -0.739,2 -0.706,2.593 0.019,0.34 -0.201,0.693 -0.477,1.546 0.092,0.692 0.278,1.982 0.407,3.277 0.01,0.102 -0.379,0.243 -0.707,0.442 1.296,0.575 0.394,1.934 1.171,2.892 0.474,0.584 -0.926,1.988 0.56,2.934 -0.649,0.098 -0.89,0.134 -1.131,0.171 -0.894,0.926 1.341,1.296 0.397,2.458 -0.324,0.399 0.354,1.613 0.581,2.481 -1.685,1.316 1.093,2.942 -0.209,4.466 0.589,0.576 1.233,1.206 2.208,2.159 -0.758,-0.117 -1.086,-0.168 -1.564,-0.242 0.307,0.41 0.548,0.733 0.79,1.056 -0.26,0.003 -0.521,0.006 -0.781,0.009 -0.95,-1.462 -2.183,-2.813 -2.805,-4.403 -4.372,-11.172 -4.409,-22.15 1.803,-32.769 3.079,-5.264 7.335,-9.246 12.805,-11.935 0.462,-0.225 1.294,-0.146 0.881,-1.08 z"
   id="path3263"
   inkscape:connector-curvature="0"
   style="fill:#fefefe" />
		<path
   d="m 129.381,133.154 c 0.159,-0.891 0.318,-1.782 0.505,-2.832 5.579,0.979 11.059,1.942 16.541,2.904 -0.541,2.929 -3.681,9.172 -5.634,11.204 -4.041,-0.656 -8.144,-1.321 -12.367,-2.006 -0.039,-0.335 -0.086,-0.735 -0.132,-1.135 0.362,-2.712 0.724,-5.423 1.087,-8.135 z"
   id="path3265"
   inkscape:connector-curvature="0"
   style="fill:#ffffff" />
		<path
   d="m 141.226,174.328 c -3.073,0.824 -6.007,1.915 -8.701,3.694 -3.632,2.398 -6.24,5.639 -7.679,9.636 -3.782,10.51 -2.816,20.558 3.747,29.776 1.585,2.226 3.631,4.128 5.496,6.15 0.786,0.852 1.652,1.63 2.797,2.75 -2.762,-0.816 -4.748,-2.189 -6.614,-3.738 -6.069,-5.037 -9.018,-11.68 -9.751,-19.389 -0.414,-4.349 -0.218,-8.684 0.73,-12.973 2.176,-9.851 8.435,-15.491 18.471,-16.6 0.496,-0.055 0.997,-0.072 1.495,-0.107 0.003,0.267 0.006,0.534 0.009,0.801 z"
   id="path3267"
   inkscape:connector-curvature="0"
   style="fill:#fefefe" />
		<path
   d="m 164.142,191.064 c -0.004,0.642 0.008,1.284 -0.016,1.926 -0.135,3.586 -0.441,7.175 -0.38,10.757 0.077,4.562 1.689,8.702 4.561,12.222 3.193,3.915 7.344,5.738 12.438,4.635 1.613,-0.349 3.146,-1.071 4.715,-1.622 -0.123,0.349 -0.247,0.698 -0.37,1.047 -6.939,4.594 -15.582,2.853 -20.088,-4.158 -4.908,-7.637 -5.024,-15.658 -1.601,-23.878 0.149,-0.357 0.518,-0.622 0.785,-0.929 l -0.044,0 z"
   id="path3269"
   inkscape:connector-curvature="0"
   style="fill:#fdfdfd" />
		<path
   d="m 117.46,189.042 c 0.729,-1.887 1.457,-3.774 2.186,-5.661 0.892,-0.711 1.783,-1.422 2.675,-2.133 -2.709,4.23 -3.94,8.945 -4.505,13.868 -0.595,5.183 -0.201,10.312 0.912,15.398 0.12,0.548 0.139,1.117 0.206,1.677 0,0 -0.074,0.008 -0.074,0.008 -0.435,-1.062 -0.976,-2.095 -1.289,-3.192 -1.896,-6.639 -1.856,-13.3 -0.111,-19.965 z"
   id="path3271"
   inkscape:connector-curvature="0"
   style="fill:#f7f7f7" />
		<path
   d="m 193.153,204.616 c -0.34,-3.817 -0.501,-7.661 -1.087,-11.44 -0.352,-2.267 -1.173,-4.523 -2.149,-6.613 -0.729,-1.56 -1.033,-2.923 -0.115,-4.782 4.032,7.514 5.38,15.212 3.869,23.409 -0.173,-0.192 -0.345,-0.383 -0.518,-0.574 z"
   id="path3273"
   inkscape:connector-curvature="0"
   style="fill:#f8f8f8" />
		<path
   d="m 173.285,124.896 c -0.259,-1.378 -0.6,-2.749 -0.73,-4.139 -0.041,-0.44 0.379,-1.162 0.772,-1.333 0.339,-0.147 0.939,0.305 1.423,0.493 l -0.013,-0.13 c 0.2,3.784 1.588,7.233 3.016,10.671 0.407,0.98 0.822,1.956 1.2,2.855 -1.023,1.064 -1.845,1.08 -2.615,0.034 -1.018,-2.817 -2.036,-5.634 -3.053,-8.451 z"
   id="path3275"
   inkscape:connector-curvature="0"
   style="fill:#fbfbfb" />
		<path
   d="m 127.395,142.284 c -0.305,-0.356 -0.886,-0.723 -0.872,-1.067 0.155,-4.042 0.225,-8.107 1.772,-11.945 1.203,1.177 0.297,2.617 0.488,3.921 -0.344,2.714 -0.687,5.428 -1.031,8.143 -0.119,0.315 -0.238,0.632 -0.357,0.948 z"
   id="path3277"
   inkscape:connector-curvature="0"
   style="fill:#f7f7f7" />
		<path
   d="m 129.496,151.587 c 2.348,0.118 4.599,-0.077 6.708,1.369 -0.103,0.726 -0.204,1.436 -0.331,2.334 -1.078,-0.716 -1.924,-1.519 -2.928,-1.878 -1.063,-0.381 -2.278,-0.339 -3.521,-0.494 0.022,-0.422 0.043,-0.805 0.072,-1.331 z"
   id="path3279"
   inkscape:connector-curvature="0"
   style="fill:#f1f1f1" />
		<path
   d="m 141.959,220.113 c 0.26,-0.003 0.521,-0.006 0.781,-0.009 2.183,2.135 4.365,4.27 6.548,6.405 -2.762,-1.788 -5.718,-3.346 -7.329,-6.396 z"
   id="path3281"
   inkscape:connector-curvature="0"
   style="fill:#a4a4a4" />
		<path
   d="m 173.285,124.896 c 1.018,2.817 2.035,5.634 3.053,8.451 -0.213,-0.013 -0.426,-0.026 -0.638,-0.038 -1.45,-2.663 -2.502,-5.469 -3.04,-8.46 0.208,0.016 0.416,0.032 0.625,0.047 z"
   id="path3283"
   inkscape:connector-curvature="0"
   style="fill:#272727" />
		<path
   d="m 127.752,141.335 c 0.344,-2.714 0.687,-5.428 1.031,-8.143 0.199,-0.013 0.399,-0.026 0.598,-0.038 -0.362,2.712 -0.725,5.423 -1.087,8.135 -0.181,0.015 -0.362,0.031 -0.542,0.046 z"
   id="path3285"
   inkscape:connector-curvature="0"
   style="fill:#353535" />
		<path
   d="m 188.944,145.099 c -1.44,0.236 -2.88,0.472 -4.421,0.725 -0.071,-0.4 -0.169,-0.956 -0.286,-1.613 1.707,-0.225 3.239,0.051 4.75,0.541 -0.09,0.106 -0.105,0.221 -0.043,0.347 z"
   id="path3287"
   inkscape:connector-curvature="0"
   style="fill:#e6e6e6" />
		<path
   d="m 154.208,180.552 c 1.656,-1.691 2.888,-3.833 5.171,-4.854 -0.008,0.259 -0.015,0.518 -0.023,0.777 -1.644,1.453 -3.289,2.906 -4.933,4.359 -0.06,-0.103 -0.132,-0.197 -0.215,-0.282 z"
   id="path3289"
   inkscape:connector-curvature="0"
   style="fill:#3f3f3f" />
		<path
   d="m 141.226,174.328 c -0.003,-0.267 -0.006,-0.534 -0.009,-0.801 1.189,-0.36 2.344,-0.154 3.506,-0.071 0.006,0.168 0.012,0.335 0.018,0.503 -1.171,0.122 -2.343,0.245 -3.515,0.369 z"
   id="path3291"
   inkscape:connector-curvature="0"
   style="fill:#a3a3a3" />
		<path
   d="m 185.091,220.031 c 0.123,-0.349 0.247,-0.698 0.37,-1.047 0.785,-0.513 1.571,-1.027 2.356,-1.54 -0.603,1.24 -1.343,2.281 -2.726,2.587 z"
   id="path3293"
   inkscape:connector-curvature="0"
   style="fill:#bababa" />
		<path
   d="m 188.987,144.752 c 1.053,-0.004 2.049,0.13 3.165,1.484 -1.425,-0.505 -2.317,-0.821 -3.209,-1.136 -0.061,-0.127 -0.046,-0.242 0.044,-0.348 z"
   id="path3295"
   inkscape:connector-curvature="0"
   style="fill:#b3b3b3" />
		<path
   d="m 193.153,204.616 c 0.172,0.191 0.345,0.382 0.517,0.573 -0.093,0.414 -0.187,0.827 -0.28,1.241 -0.132,-0.018 -0.265,-0.037 -0.397,-0.055 0.054,-0.587 0.107,-1.173 0.16,-1.759 z"
   id="path3297"
   inkscape:connector-curvature="0"
   style="fill:#999999" />
		<path
   d="m 164.187,191.066 c -0.011,-0.22 -0.022,-0.439 -0.033,-0.659 0.116,0.021 0.233,0.042 0.349,0.063 -0.121,0.198 -0.241,0.396 -0.362,0.594 0.001,0 0.046,0.002 0.046,0.002 z"
   id="path3299"
   inkscape:connector-curvature="0"
   style="fill:#fdfdfd" />
		<path
   d="m 141.42,192.007 c 0.213,-0.232 0.426,-0.464 0.639,-0.695 0.379,0.776 -0.096,0.767 -0.639,0.695 z"
   id="path3301"
   inkscape:connector-curvature="0"
   style="fill:#818181" />
		<path
   d="m 119.238,213.252 c 0.179,0.217 0.358,0.434 0.536,0.652 -0.106,0.044 -0.212,0.088 -0.318,0.132 -0.054,-0.263 -0.107,-0.525 -0.161,-0.788 l -0.057,0.004 z"
   id="path3303"
   inkscape:connector-curvature="0"
   style="fill:#bfbfbf" />
		<path
   d="m 119.295,213.248 c -0.145,-0.35 -0.29,-0.7 -0.435,-1.05 0,0 0.074,-0.008 0.074,-0.008 0.101,0.354 0.203,0.708 0.304,1.062 0,0 0.057,-0.004 0.057,-0.004 z"
   id="path3305"
   inkscape:connector-curvature="0"
   style="fill:#d3d3d3" />
		<path
   d="m 176.373,170.777 c 0.11,-0.075 0.219,-0.151 0.329,-0.226 -0.112,0.043 -0.223,0.085 -0.335,0.128 l 0.006,0.098 z"
   id="path3307"
   inkscape:connector-curvature="0"
   style="fill:#fefefe" />
		<path
   d="m 141.224,192.365 c -0.057,-0.111 -0.114,-0.222 -0.171,-0.333 0.122,-0.008 0.243,-0.017 0.365,-0.025 -0.014,0.147 -0.079,0.266 -0.194,0.358 z"
   id="path3309"
   inkscape:connector-curvature="0"
   style="fill:#818181" />
		<path
   d="m 153.529,170.396 c 0.251,-0.077 0.503,-0.154 0.754,-0.231 -0.251,0.078 -0.503,0.155 -0.754,0.231 z"
   id="path3311"
   inkscape:connector-curvature="0"
   style="fill:#fefefe" />
		<path
   d="m 152.108,171.125 c 0.244,-0.085 0.487,-0.169 0.731,-0.254 -0.244,0.085 -0.488,0.17 -0.731,0.254 z"
   id="path3313"
   inkscape:connector-curvature="0"
   style="fill:#fefefe" />
		<path
   d="m 176.912,230.117 c 1.206,-0.53 2.381,-1.045 3.603,-1.582"
   id="path3315"
   inkscape:connector-curvature="0"
   style="fill:#fcfcfc" />
		<path
   d="m 146.562,205.478 c -0.281,-1.573 -0.513,-3.143 0.291,-4.649 0.143,1.546 0.286,3.092 0.429,4.638 -0.239,0.004 -0.48,0.008 -0.72,0.011 z"
   id="path3317"
   inkscape:connector-curvature="0"
   style="fill:#727272" />
		<path
   d="m 154.208,180.552 c 0.083,0.085 0.155,0.179 0.216,0.281 -0.026,0.239 0.019,0.517 -0.09,0.71 -1.358,2.412 -2.732,4.816 -4.12,7.21 -0.159,0.274 -0.431,0.482 -0.65,0.721 0.151,-2.429 1.698,-4.272 2.717,-6.326 0.472,-0.95 1.275,-1.736 1.927,-2.596 z"
   id="path3319"
   inkscape:connector-curvature="0"
   style="fill:#828282" />
		<path
   d="m 147.513,196.607 c -0.11,-2.625 0.601,-5.014 2.063,-7.188 -0.687,2.396 -1.375,4.792 -2.063,7.188 z"
   id="path3321"
   inkscape:connector-curvature="0"
   style="fill:#7a7a7a" />
		<path
   d="m 146.85,200.878 c -0.386,-0.912 -0.289,-1.761 0.333,-2.541 -0.111,0.847 -0.222,1.694 -0.333,2.541 z"
   id="path3323"
   inkscape:connector-curvature="0"
   style="fill:#707070" />
		<path
   d="m 147.178,198.383 c 0.114,-0.611 0.228,-1.222 0.342,-1.832 -0.114,0.611 -0.228,1.221 -0.342,1.832 z"
   id="path3325"
   inkscape:connector-curvature="0"
   style="fill:#747474" />
		<path
   d="m 151.892,174.113 c -0.135,0.035 -0.27,0.07 -0.405,0.105 0.134,-0.013 0.267,-0.026 0.401,-0.038 l 0.004,-0.067 z"
   id="path3327"
   inkscape:connector-curvature="0"
   style="fill:#020202" />
	<path
   d="m 162.493,231.573 c -1.146,-0.178 -2.296,-0.337 -3.439,-0.538 -2.548,-0.449 -5.085,-0.964 -7.641,-1.357 -0.892,-0.137 -1.86,-0.143 -2.738,0.047 -5.745,1.239 -11.116,-0.07 -16.349,-2.311 -11.441,-4.899 -16.201,-14.32 -17.347,-26.039 -0.41,-4.188 0.131,-8.345 1.829,-12.273 0.217,-0.02 0.435,-0.04 0.652,-0.06 -1.746,6.664 -1.785,13.326 0.11,19.964 0.313,1.097 0.854,2.13 1.289,3.192 0.145,0.35 0.29,0.7 0.435,1.05 0.054,0.263 0.107,0.525 0.161,0.788 0.106,-0.044 0.212,-0.088 0.318,-0.132 -0.179,-0.217 -0.358,-0.434 -0.536,-0.652 -0.101,-0.354 -0.203,-0.708 -0.304,-1.062 -0.066,-0.559 -0.086,-1.129 -0.206,-1.677 -1.113,-5.086 -1.507,-10.215 -0.912,-15.398 0.565,-4.923 1.796,-9.638 4.505,-13.868 0.747,-1.234 1.495,-2.467 2.242,-3.701 0.419,-0.407 0.797,-0.869 1.263,-1.211 2.162,-1.588 2.613,-3.731 2.095,-6.211 -0.169,-0.809 -0.336,-1.618 -0.546,-2.63 -1.341,-0.121 -2.649,-0.238 -3.956,-0.359 -0.913,-0.084 -1.883,-0.012 -2.721,-0.31 -0.812,-0.288 -1.706,-0.807 -2.184,-1.49 -1.7,-2.431 -0.249,-6.154 2.63,-7.047 0.23,-0.071 0.459,-0.145 0.854,-0.27 0.45,-5.417 2.481,-10.456 4.038,-15.623 0.453,-0.038 0.905,-0.075 1.358,-0.113 0.119,-0.316 0.238,-0.632 0.356,-0.949 0.181,-0.015 0.361,-0.031 0.542,-0.046 0.047,0.4 0.093,0.8 0.132,1.135 4.223,0.685 8.326,1.351 12.367,2.006 1.953,-2.032 5.093,-8.275 5.634,-11.204 -5.482,-0.962 -10.962,-1.925 -16.541,-2.904 -0.187,1.05 -0.346,1.941 -0.505,2.832 -0.199,0.013 -0.399,0.026 -0.598,0.038 -0.191,-1.303 0.715,-2.743 -0.488,-3.921 -0.365,-0.122 -0.731,-0.245 -1.096,-0.367 -0.943,-1.833 -0.268,-3.615 0.258,-5.356 1.38,-4.571 3.4,-8.871 5.679,-13.057 1.607,-2.951 3.532,-5.657 5.906,-8.049 3.973,-4.001 8.755,-6.435 14.337,-6.999 9.414,-0.952 18.515,0.514 27.23,4.193 8.786,3.71 12.225,11.095 13.463,19.928 0.347,2.477 0.687,4.959 0.917,7.448 0.261,2.83 0.385,5.672 0.592,8.507 0.06,0.826 0.149,1.657 0.315,2.468 0.971,4.748 1.988,9.487 2.942,14.238 0.233,1.161 0.451,2.217 1.499,3.012 0.966,0.732 1.329,1.89 1.486,3.089 0.374,2.864 -0.868,4.521 -3.738,4.798 -2.076,0.2 -4.166,0.259 -6.208,0.379 -0.727,1.041 -1.387,1.984 -2.182,3.123 0.229,2.46 0.44,5.122 0.75,7.773 0.073,0.629 0.454,1.23 0.73,1.827 1.12,2.421 2.374,4.787 3.36,7.261 3.113,7.81 3.196,15.814 1.266,23.906 -0.056,0.234 -0.225,0.44 -0.342,0.659 -0.467,0.573 -1.069,1.082 -1.376,1.731 -0.845,1.786 -1.566,3.631 -2.336,5.453 -2.247,4.129 -5.764,6.643 -10.226,7.844 -1.682,0.453 -3.437,0.704 -5.176,0.869 -9.602,0.914 -17.219,-5.437 -19.321,-13.641 -1.612,-6.291 -1.556,-12.567 0.127,-18.832 2.005,-7.465 6.788,-12.463 13.779,-15.499 2.911,-1.265 5.984,-1.861 9.148,-2.117 -0.07,-1.364 -1.052,-1.618 -1.926,-1.707 -1.32,-0.134 -2.674,-0.155 -3.993,-0.02 -5.195,0.533 -10.163,1.888 -14.802,4.34 0.008,-0.259 0.015,-0.518 0.023,-0.777 3.016,-2.486 6.581,-3.743 10.352,-4.394 2.183,-0.377 4.422,-0.428 6.635,-0.625 0.112,-0.043 0.223,-0.085 0.335,-0.128 -0.11,0.075 -0.219,0.151 -0.329,0.226 -0.918,-0.297 -1.822,-0.801 -2.755,-0.859 -10.393,-0.642 -18.924,2.798 -24.573,11.858 -7.009,11.241 -7.605,23.102 -2.654,35.257 1.667,4.092 4.457,7.379 8.211,9.865 2.689,1.781 5.66,2.803 8.647,3.847 -0.249,0.279 -0.501,0.556 -0.753,0.832 z m -21.075,-39.566 0.002,-0.001 c 0.543,0.072 1.019,0.081 0.639,-0.695 -0.235,-0.578 -0.469,-1.157 -0.635,-1.566 2.288,-0.825 1.027,-3.778 3.062,-4.506 -0.122,-0.741 -0.235,-1.422 -0.359,-2.175 1.488,0.358 0.584,-0.919 1.09,-1.18 0.356,-0.08 0.712,-0.161 1.111,-0.251 -0.234,-0.448 -0.386,-0.739 -0.558,-1.07 1.366,-1.092 2.729,-2.182 4.091,-3.271 -0.224,-0.195 -0.446,-0.388 -0.825,-0.716 1.655,-0.213 2.296,-1.295 2.856,-2.462 l -0.004,0.067 c 0.219,-0.879 1.557,-0.589 1.699,-1.858 0.075,-0.671 1.52,-1.151 2.271,-1.804 0.28,-0.243 0.345,-0.733 0.509,-1.111 0.97,-0.241 1.936,-0.5 2.911,-0.719 6.884,-1.552 13.697,-1.882 20.046,1.168 0.261,-1.598 0.555,-3.205 0.775,-4.822 0.142,-1.049 0.176,-2.112 0.265,-3.262 -1.207,-0.098 -2.204,-0.108 -3.175,-0.27 -3.739,-0.624 -5.527,-3.52 -4.491,-7.177 0.57,-2.014 1.895,-3.224 3.963,-3.619 0.045,-4.29 0.038,-8.467 0.157,-12.64 0.049,-1.719 -0.179,-3.305 -1.118,-4.759 0.213,0.013 0.426,0.026 0.638,0.038 0.769,1.046 1.591,1.03 2.615,-0.034 -0.378,-0.899 -0.793,-1.875 -1.2,-2.855 -1.428,-3.437 -2.816,-6.886 -3.016,-10.671 0.265,0.592 0.59,1.165 0.784,1.779 1.225,3.884 2.467,7.76 4.29,11.611 4.892,-0.343 9.652,0.242 14.464,1.718 0.117,-0.871 0.273,-1.428 0.252,-1.979 -0.068,-1.752 -0.105,-3.514 -0.329,-5.25 -0.683,-5.31 0.165,-5.721 -6.356,-7.228 -3.794,-0.877 -7.776,-0.954 -11.682,-1.301 -0.444,-0.039 -0.939,0.505 -1.41,0.779 -0.484,-0.187 -1.084,-0.64 -1.423,-0.493 -0.393,0.17 -0.813,0.892 -0.772,1.333 0.13,1.39 0.471,2.761 0.73,4.139 -0.208,-0.016 -0.417,-0.031 -0.626,-0.047 -0.381,-1.189 -0.758,-2.38 -1.143,-3.568 -1.03,-3.179 -1.968,-6.391 -3.13,-9.521 -0.723,-1.947 -1.821,-3.74 -3.746,-4.962 -4.118,2.383 -7.344,5.587 -9.896,9.474 -3.014,4.591 -4.769,9.734 -6.298,14.953 -1.182,4.034 -2.847,7.838 -5.028,11.427 -0.602,0.99 -1.114,2.035 -1.678,3.076 0.829,1.626 0.729,3.237 0.571,4.946 -0.309,3.319 -0.317,6.665 -0.437,9.702 0.332,0.366 0.377,0.435 0.439,0.482 1.989,1.507 2.802,3.853 2.025,5.906 -0.831,2.195 -2.67,2.201 -4.582,2.142 -0.973,-0.03 -1.951,0.121 -3.029,0.197 0.035,0.623 0.055,0.997 0.082,1.469 5.005,-0.589 9.82,-0.121 14.612,0.776 0.208,0.039 0.457,-0.143 0.687,-0.221 0.244,-0.085 0.487,-0.169 0.731,-0.254 0.23,-0.158 0.461,-0.317 0.691,-0.475 0.251,-0.077 0.503,-0.154 0.754,-0.231 l 0.205,-0.082 0.152,-0.159 c 0.413,0.934 -0.42,0.855 -0.879,1.081 -5.47,2.689 -9.726,6.672 -12.805,11.935 -6.212,10.619 -6.174,21.597 -1.803,32.769 0.622,1.59 1.855,2.941 2.805,4.403 1.611,3.05 4.568,4.607 7.329,6.396 -2.183,-2.135 -4.365,-4.27 -6.548,-6.405 -0.242,-0.323 -0.483,-0.646 -0.79,-1.056 0.478,0.074 0.807,0.125 1.564,0.242 -0.974,-0.953 -1.619,-1.583 -2.208,-2.159 1.302,-1.524 -1.476,-3.151 0.209,-4.466 -0.227,-0.868 -0.905,-2.082 -0.581,-2.481 0.944,-1.162 -1.291,-1.533 -0.397,-2.458 0.241,-0.036 0.482,-0.073 1.13,-0.171 -1.487,-0.947 -0.086,-2.35 -0.56,-2.934 -0.777,-0.958 0.125,-2.317 -1.171,-2.892 0.328,-0.198 0.718,-0.34 0.707,-0.442 -0.129,-1.295 -0.315,-2.584 -0.407,-3.277 0.276,-0.852 0.496,-1.206 0.477,-1.546 -0.033,-0.593 0.372,-1.819 0.706,-2.593 0.172,-0.4 -0.115,-0.997 -0.195,-1.505 0.115,-0.092 0.18,-0.211 0.194,-0.358 z m 47.526,-46.908 c 0.892,0.316 1.784,0.632 3.209,1.136 -1.116,-1.353 -2.112,-1.488 -3.165,-1.484 -1.511,-0.49 -3.043,-0.766 -4.75,-0.541 0.116,0.657 0.215,1.213 0.286,1.613 1.539,-0.252 2.979,-0.488 4.42,-0.724 z m 4.209,59.517 c -0.053,0.586 -0.107,1.173 -0.16,1.759 0.132,0.018 0.265,0.037 0.397,0.055 0.093,-0.414 0.187,-0.827 0.28,-1.241 1.512,-8.197 0.164,-15.895 -3.869,-23.409 -0.918,1.859 -0.614,3.222 0.115,4.782 0.976,2.09 1.797,4.345 2.149,6.613 0.587,3.779 0.748,7.624 1.088,11.441 z m -28.966,-13.55 c -0.267,0.308 -0.636,0.572 -0.785,0.929 -3.423,8.22 -3.307,16.242 1.601,23.878 4.506,7.011 13.149,8.752 20.088,4.158 1.384,-0.305 2.123,-1.347 2.727,-2.587 -0.785,0.513 -1.571,1.027 -2.356,1.54 -1.569,0.551 -3.102,1.272 -4.715,1.622 -5.094,1.103 -9.245,-0.72 -12.438,-4.635 -2.872,-3.521 -4.484,-7.66 -4.561,-12.222 -0.061,-3.583 0.245,-7.171 0.38,-10.757 0.024,-0.641 0.012,-1.284 0.016,-1.926 0.12,-0.198 0.241,-0.396 0.362,-0.594 -0.116,-0.021 -0.233,-0.042 -0.349,-0.063 0.009,0.217 0.02,0.437 0.03,0.657 z m -22.961,-16.738 c 1.172,-0.123 2.344,-0.247 3.516,-0.37 -0.006,-0.168 -0.012,-0.335 -0.018,-0.503 -1.162,-0.083 -2.317,-0.288 -3.506,0.071 -0.498,0.035 -0.999,0.052 -1.495,0.107 -10.036,1.109 -16.295,6.75 -18.471,16.6 -0.948,4.289 -1.144,8.624 -0.73,12.973 0.734,7.71 3.682,14.353 9.751,19.389 1.866,1.548 3.852,2.922 6.614,3.738 -1.145,-1.12 -2.011,-1.898 -2.797,-2.75 -1.865,-2.022 -3.911,-3.924 -5.496,-6.15 -6.564,-9.218 -7.53,-19.266 -3.747,-29.776 1.439,-3.998 4.046,-7.239 7.679,-9.636 2.693,-1.778 5.627,-2.87 8.7,-3.693 z m -11.898,-45.723 c 0.202,-0.728 0.396,-1.363 0.554,-2.006 1.067,-4.32 2.66,-8.439 4.885,-12.29 2.617,-4.531 5.8,-8.601 10.239,-11.502 7.513,-4.911 14.922,-2.504 19.28,1.819 3.227,3.201 5.411,6.957 6.85,11.215 0.305,0.904 0.726,1.769 1.081,2.622 2.226,-0.688 2.569,-1.143 2.125,-3.095 -0.919,-4.037 -2.639,-7.743 -5.015,-11.12 -6.343,-9.015 -15.626,-9.6 -23.008,-6.111 -3.47,1.64 -6.259,4.215 -8.561,7.214 -4.521,5.891 -7.638,12.516 -9.635,19.664 -0.201,0.72 -0.322,1.472 -0.382,2.218 -0.07,0.879 0.313,1.436 1.587,1.372 z m 0.168,22.982 c -0.029,0.525 -0.05,0.909 -0.073,1.332 1.243,0.155 2.458,0.113 3.521,0.494 1.005,0.359 1.85,1.163 2.928,1.878 0.127,-0.898 0.228,-1.608 0.331,-2.334 -2.109,-1.447 -4.359,-1.252 -6.707,-1.37 z"
   id="path3241"
   inkscape:connector-curvature="0"
   style="fill:#020202" /></g>
</g>
<g
   id="Calque_1"
   transform="translate(-233.01314,-32.034716)">
	<g
   id="g3330">
		<path
   d="m 786.399,169.889 c -0.823,-2.952 -2.462,-5.444 -5.107,-7.169 -5.786,-3.774 -11.813,-3.622 -17.373,-0.04 -3.703,2.385 -6.701,5.864 -10.014,8.853 l 0.102,0.103 c 0.461,-1.403 0.935,-2.803 1.38,-4.211 2.534,-8.015 -1.911,-14.195 -10.259,-14.108 -1.795,0.019 -3.66,0.363 -5.36,0.944 -3.703,1.265 -6.72,3.541 -9.057,6.742 -2.81,3.848 -4.446,8.138 -5.221,12.802 -0.493,2.972 -1.808,5.206 -5.217,5.743 -0.902,-3.142 0.23,-5.83 1.265,-8.394 2.486,-6.158 5.275,-12.194 7.823,-18.327 1.015,-2.442 1.867,-4.975 2.522,-7.536 0.653,-2.553 0.326,-4.996 -2.103,-6.659 -2.273,-1.556 -5.436,-1.592 -7.891,0.559 -1.95,1.708 -3.552,3.931 -4.904,6.169 -1.348,2.232 -2.193,4.768 -3.136,6.894 -2.979,0.634 -5.644,0.962 -8.15,1.777 -9.032,2.939 -14.27,9.506 -16.575,18.438 -0.875,3.391 -2.516,5.603 -6.079,6.895 -0.749,-4.777 1.525,-8.619 2.465,-12.601 4.25,-1.528 5.525,-4.206 4.004,-7.997 -1.003,-2.499 -2.894,-4.3 -5.381,-4.818 -3.203,-0.667 -6.647,-1.338 -9.805,-0.843 -11.826,1.853 -19.512,8.662 -22.438,20.427 -0.665,2.673 -1.862,4.672 -5.238,6.295 1.214,-2.481 2.085,-4.046 2.764,-5.691 1.323,-3.209 2.941,-6.368 3.717,-9.715 1.762,-7.597 -3.71,-12.863 -11.2,-10.918 -2.499,0.649 -4.834,1.927 -6.392,2.568 -2.856,-1.232 -5.222,-3.214 -7.271,-2.927 -3.792,0.53 -7.399,2.387 -11.466,3.828 0.303,0.229 -0.005,0.068 -0.218,-0.176 -2.395,-2.745 -5.471,-3.135 -8.668,-2.116 -3.059,0.975 -2.586,3.892 -2.855,6.317 -0.018,0.165 -0.035,0.332 -0.035,0.498 10e-4,2.283 -1.262,3.288 -3.416,3.405 -2.09,-5.265 -4.92,-8.677 -9.972,-11.002 -1.849,-0.851 -4.224,-1.179 -6.247,-0.909 -4.773,0.637 -8.694,3.098 -11.873,6.759 -3.367,3.878 -5.305,8.441 -6.366,13.366 -0.633,2.936 -2.367,4.711 -4.968,5.981 0.584,-2.101 1.728,-3.891 2.498,-5.83 1.28,-3.22 2.792,-6.455 3.36,-9.827 1.097,-6.505 -4.796,-12.38 -12.096,-9.784 -2.441,0.868 -4.66,2.362 -6.802,3.477 -1.61,-0.918 -3.06,-2.108 -4.719,-2.623 -4.518,-1.401 -6.823,0.418 -7.513,5.035 -0.562,3.76 -1.596,7.454 -2.506,11.156 -0.911,3.706 -2.222,7.343 -2.78,11.096 -0.294,1.977 0.301,4.285 1.116,6.177 1.023,2.377 4.417,3.772 6.724,3.342 2.72,-0.507 3.823,-1.884 4.477,-5.196 0.449,-2.272 0.963,-4.553 1.713,-6.739 1.47,-4.284 3.405,-8.329 7.014,-11.34 -0.52,1.913 -1.467,3.618 -2.146,5.424 -0.989,2.63 -2.159,5.274 -2.585,8.016 -0.92,5.911 2.211,9.662 8.101,10.218 3.747,0.354 7.297,-0.298 10.542,-2.295 1.102,-0.678 2.201,-1.362 3.206,-1.984 9.115,6.387 17.846,5.308 24.851,-3.084 1.681,-2.014 2.809,-4.486 4.24,-6.716 0.422,-0.658 1.012,-1.209 1.861,-2.201 -0.348,3.488 -0.874,6.265 -0.837,9.034 0.046,3.434 1.977,5.638 5.112,6.604 3.47,1.069 6.284,-0.557 7.002,-4.149 1.38,-6.907 3.317,-13.531 8.826,-18.456 l 0.262,0.268 c -0.537,1.372 -1.102,2.733 -1.604,4.117 -1.069,2.948 -2.446,5.837 -3.078,8.878 -1.067,5.132 3.253,9.516 8.469,9.032 2.239,-0.208 3.72,-1.123 4.047,-3.552 0.243,-1.8 0.493,-3.648 1.109,-5.34 1.787,-4.907 3.269,-10.041 7.916,-13.257 l -0.077,-0.075 c -0.49,1.381 -0.97,2.766 -1.472,4.144 -0.908,2.492 -2.035,4.924 -2.704,7.478 -1.718,6.555 1.75,11.17 8.479,11.621 4.301,0.288 8.142,-1.081 11.809,-3.473 6.151,5.923 12.559,4.43 18.86,0.941 6.37,4.283 12.173,2.453 17.806,-1.221 6.187,6.086 12.735,4.884 19.39,1.169 2.888,2.356 6.163,3.122 9.497,2.244 3.141,-0.827 6.112,-2.303 9.329,-3.561 4.487,4.023 9.928,4.385 15.731,3.025 7.096,-1.663 12.759,-5.538 17.223,-11.197 3.01,-3.815 6.112,-7.447 10.932,-8.94 9.02966,-3.42856 19.72455,-14.15007 8.272,-0.41337 M 793.94,168.115 c 8,0.366 7.998,0.361 15.062,-3.302 2.363,-1.225 4.803,-2.316 7.097,-3.656 1.395,-0.815 3.001,-1.748 3.76,-3.062 1.192,-2.064 2.975,-2.968 4.913,-3.945 8.296,-4.181 16.617,-8.317 24.794,-12.721 2.367,-1.275 4.282,-3.388 6.337,-5.063 2.269,-0.57 5.437,-0.412 6.804,-1.905 3.086,-3.368 5.63,-7.433 4.969,-12.492 -0.263,-2.012 -1.434,-3.408 -3.443,-3.765 -2.445,-0.435 -4.928,-0.664 -7.399,-0.944 -4.017,-0.455 -7.384,0.293 -8.318,4.843 -1.953,0.156 -3.812,-0.171 -5.186,0.498 -5.046,2.457 -9.98,5.158 -14.861,7.934 -3.892,2.213 -7.694,4.594 -11.442,7.045 -2.037,1.332 -4.192,1.796 -6.559,1.966 -1.777,0.128 -3.736,0.294 -5.242,1.121 -4.371,2.401 -8.611,5.058 -12.789,7.788 -2.101,1.373 -3.658,3.157 -4.047,5.968 -0.814,5.89 -4.812,8.214 -10.58,7.55"
   id="path3332"
   inkscape:connector-curvature="0"
   style="fill:#ffffff"
   sodipodi:nodetypes="ccccccccccccccccccccccccccccccccccsccccscccccccccsccsccccccccccccccccccccccccccccccccsccccccccccccccccccccccc" />
		<path
   d="m 789.19403,170.05905 c -8.41155,5.99599 -20.1102,0.0442 -14.22493,0.48023 0.0823,1.55506 -3.66245,-1.44155 -13.1251,9.57176 -4.464,5.659 -10.127,9.535 -17.223,11.197 -5.803,1.36 -11.245,0.998 -15.731,-3.025 -3.218,1.258 -6.188,2.734 -9.329,3.561 -3.335,0.878 -6.609,0.112 -9.497,-2.244 -6.655,3.714 -13.203,4.917 -19.39,-1.169 -5.632,3.674 -11.436,5.503 -17.806,1.221 -6.301,3.488 -12.709,4.982 -18.86,-0.941 -3.666,2.392 -7.508,3.761 -11.809,3.473 -6.729,-0.451 -10.197,-5.066 -8.479,-11.621 0.669,-2.553 1.796,-4.986 2.704,-7.478 0.502,-1.377 0.982,-2.762 1.472,-4.144 0.143,-0.253 0.285,-0.505 0.428,-0.758 -0.117,0.278 -0.234,0.555 -0.351,0.833 -4.647,3.215 -6.129,8.35 -7.916,13.257 -0.616,1.692 -0.866,3.54 -1.109,5.34 -0.328,2.429 -1.809,3.345 -4.047,3.552 -5.216,0.484 -9.537,-3.9 -8.469,-9.032 0.633,-3.042 2.009,-5.93 3.078,-8.878 0.502,-1.384 1.067,-2.745 1.604,-4.117 0.164,-0.296 0.328,-0.593 0.491,-0.889 -0.251,0.207 -0.503,0.414 -0.754,0.621 -5.509,4.925 -7.446,11.549 -8.826,18.456 -0.718,3.592 -3.533,5.218 -7.002,4.149 -3.135,-0.966 -5.066,-3.17 -5.112,-6.604 -0.037,-2.769 0.489,-5.546 0.837,-9.034 -0.849,0.992 -1.438,1.543 -1.861,2.201 -1.431,2.23 -2.559,4.701 -4.24,6.716 -7.005,8.392 -15.736,9.471 -24.851,3.084 -1.005,0.622 -2.104,1.306 -3.206,1.984 -3.245,1.997 -6.795,2.649 -10.542,2.295 -5.89,-0.556 -9.021,-4.307 -8.101,-10.218 0.427,-2.742 1.597,-5.386 2.585,-8.016 0.679,-1.806 1.626,-3.512 2.146,-5.424 -3.608,3.01 -5.544,7.056 -7.014,11.34 -0.75,2.186 -1.264,4.467 -1.713,6.739 -0.655,3.312 -1.757,4.689 -4.477,5.196 -2.306,0.43 -5.701,-0.966 -6.724,-3.342 -0.814,-1.892 -1.41,-4.2 -1.116,-6.177 0.558,-3.753 1.869,-7.39 2.78,-11.096 0.91,-3.702 1.944,-7.396 2.506,-11.156 0.69,-4.616 2.994,-6.435 7.513,-5.035 1.659,0.514 3.11,1.704 4.719,2.623 2.142,-1.115 4.361,-2.609 6.802,-3.477 7.3,-2.596 13.193,3.279 12.096,9.784 -0.568,3.371 -2.08,6.607 -3.36,9.827 -0.771,1.939 -1.914,3.729 -2.498,5.83 2.6,-1.271 4.335,-3.046 4.968,-5.981 1.061,-4.925 2.999,-9.489 6.366,-13.366 3.179,-3.661 7.1,-6.122 11.873,-6.759 2.023,-0.27 4.398,0.058 6.247,0.909 5.052,2.325 7.882,5.737 9.972,11.002 2.154,-0.116 3.417,-1.121 3.416,-3.405 0,-0.166 0.016,-0.333 0.035,-0.498 0.269,-2.425 -0.204,-5.342 2.855,-6.317 3.197,-1.019 6.273,-0.629 8.668,2.116 0.213,0.244 0.521,0.405 0.218,0.176 4.067,-1.44 7.674,-3.298 11.466,-3.828 2.049,-0.286 4.415,1.696 7.271,2.927 1.558,-0.641 3.894,-1.919 6.392,-2.568 7.49,-1.945 12.962,3.32 11.2,10.918 -0.776,3.347 -2.394,6.507 -3.717,9.715 -0.678,1.645 -1.549,3.211 -2.764,5.691 3.376,-1.624 4.574,-3.622 5.238,-6.295 2.926,-11.765 10.612,-18.573 22.438,-20.427 3.158,-0.495 6.602,0.177 9.805,0.843 2.487,0.518 4.378,2.319 5.381,4.818 1.521,3.791 0.246,6.469 -4.004,7.997 -0.94,3.982 -3.215,7.824 -2.465,12.601 3.563,-1.291 5.204,-3.504 6.079,-6.895 2.304,-8.932 7.543,-15.499 16.575,-18.438 2.506,-0.816 5.171,-1.143 8.15,-1.777 0.943,-2.125 1.788,-4.661 3.136,-6.894 1.352,-2.238 2.954,-4.461 4.904,-6.169 2.455,-2.151 5.617,-2.115 7.891,-0.559 2.429,1.663 2.756,4.106 2.103,6.659 -0.655,2.561 -1.507,5.094 -2.522,7.536 -2.549,6.134 -5.337,12.169 -7.823,18.327 -1.035,2.564 -2.167,5.251 -1.265,8.394 3.409,-0.537 4.723,-2.771 5.217,-5.743 0.774,-4.664 2.411,-8.954 5.221,-12.802 2.337,-3.202 5.355,-5.477 9.057,-6.742 1.7,-0.581 3.565,-0.925 5.36,-0.944 8.348,-0.088 12.792,6.093 10.259,14.108 -0.445,1.408 -0.919,2.808 -1.38,4.211 -0.351,0.318 -0.702,0.636 -1.054,0.954 -2.228,1.774 -4.455,3.549 -6.683,5.323 3.193,-0.677 6.069,-1.719 6.604,-5.404 0.344,-0.326 0.687,-0.651 1.031,-0.977 3.313,-2.989 6.311,-6.469 10.014,-8.853 5.56,-3.581 14.81382,-2.74114 20.59982,1.03286 2.644,1.725 4.57233,2.46021 5.39533,5.41221 M 777.81,161.55 c 5.768,0.664 9.766,-1.66 10.58,-7.55 0.388,-2.811 1.946,-4.595 4.047,-5.968 4.178,-2.73 8.417,-5.387 12.789,-7.788 1.506,-0.827 3.465,-0.994 5.242,-1.121 2.367,-0.17 4.522,-0.633 6.559,-1.966 3.747,-2.451 7.55,-4.832 11.442,-7.045 4.881,-2.776 9.815,-5.477 14.861,-7.934 1.374,-0.669 3.233,-0.342 5.186,-0.498 0.935,-4.551 4.302,-5.299 8.318,-4.843 2.471,0.28 4.954,0.509 7.399,0.944 2.009,0.358 3.18,1.753 3.443,3.765 0.661,5.059 -1.883,9.123 -4.969,12.492 -1.367,1.492 -4.535,1.334 -6.804,1.905 -2.055,1.674 -3.97,3.788 -6.337,5.063 -8.177,4.404 -16.498,8.541 -24.794,12.721 -1.938,0.977 -3.721,1.88 -4.913,3.945 -0.759,1.314 -2.365,2.247 -3.76,3.062 -2.294,1.341 -4.734,2.431 -7.097,3.656 -7.064,3.663 -7.062,3.668 -15.062,3.302 m 36.872,-34.747 0.026,-0.017 c -0.788,0.365 -1.576,0.73 -2.364,1.094 l -0.294,-0.023 -0.295,0.001 c -0.418,0.231 -0.836,0.462 -1.255,0.693 -4.648,2.792 -9.295,5.584 -13.943,8.376 -1.905,-2.158 -4.23,-1.713 -6.26,-0.563 -4.031,2.283 -7.822,4.986 -11.841,7.292 -3.602,2.067 -4.349,5.192 -3.883,8.9 0.681,5.418 6.785,8.477 11.67,5.973 3.981,-2.041 8.03,-3.948 12.059,-5.895 2.164,-1.046 4.087,-2.269 4.204,-5.019 5.375,-2.633 10.751,-5.266 16.126,-7.899 1.664,-0.941 3.328,-1.883 4.992,-2.825 1.851,-1.47 4.931,-1.278 5.702,-4.211 2.672,1.127 4.207,-1.084 6.151,-2.095 0.763,-1.238 1.526,-2.476 2.133,-3.46 2.923,-0.536 5.496,-1.008 7.795,-1.43 1.384,-2.597 2.667,-4.716 3.667,-6.962 0.932,-2.096 0.022,-4.605 -1.976,-4.781 -3.374,-0.298 -6.712,-2.082 -10.528,-0.459 -0.913,1.953 -1.385,4.656 -4.262,5.035 -1.545,0.082 -3.089,0.164 -4.634,0.246 -2.066,1.24 -4.131,2.479 -6.197,3.719 -1.954,1.076 -3.909,2.153 -5.863,3.229 -0.31,0.361 -0.62,0.721 -0.93,1.081 z m -52.44,31.57 c -5.423,-3.27 -10.361,-1.483 -14.738,2.006 -2.96,2.359 -5.631,5.195 -7.985,8.171 -3.398,4.295 -7.841,6.612 -12.961,7.817 -1.56,0.367 -3.308,0.205 -4.925,-0.026 -1.252,-0.179 -2.042,-1.089 -1.636,-2.55 0.339,-0.022 0.678,-0.045 1.017,-0.067 3.024,-1.367 6.209,-2.465 9.032,-4.166 3.97,-2.391 6.875,-5.815 7.555,-10.635 0.708,-5.021 -1.967,-8.456 -6.984,-9.051 -2.893,-0.344 -5.625,0.178 -8.185,1.623 -6.29,3.549 -9.443,9.206 -10.619,16.073 -0.939,5.482 -2.753,7.568 -8.801,8.965 -0.417,-0.888 -1.284,-1.87 -1.245,-2.815 0.1,-2.463 0.164,-5.072 1.017,-7.331 2.345,-6.21 5.121,-12.255 7.657,-18.394 1.141,-2.762 2.242,-5.554 3.125,-8.405 0.552,-1.781 0.577,-3.688 -1.367,-4.878 -1.836,-1.124 -3.778,-0.693 -5.095,0.583 -1.75,1.697 -3.301,3.727 -4.464,5.871 -1.403,2.586 -2.31,5.441 -3.46,8.25 -1.188,0.081 -2.169,0.218 -3.148,0.202 -6.475,-0.104 -11.559,2.786 -15.71,7.466 -2.927,3.301 -4.642,7.269 -5.5,11.59 -0.688,3.463 -3.154,5.434 -6.046,6.814 -2.527,1.206 -4.829,-0.409 -4.646,-3.225 0.127,-1.958 0.8,-3.889 1.301,-5.814 0.688,-2.644 1.443,-5.271 2.178,-7.936 -5.824,-0.988 -7.362,-0.137 -8.971,4.828 -1.597,4.927 -3.221,9.817 -7.471,13.303 -4.688,0.326 -5.568,-0.308 -5.352,-4.52 0.595,-11.566 10.859,-18.327 20.226,-15.684 1.695,0.478 3.401,0.92 5.143,1.39 0.585,-5.08 -1.477,-7.52 -6.49,-8.092 -13.145,-1.5 -24.083,6.172 -26.845,19.157 -0.779,3.664 -3.397,5.567 -5.846,7.69 -0.556,0.482 -2.041,-0.106 -2.898,-0.183 -1.096,-2.959 0.211,-4.999 1.195,-7.084 1.135,-2.403 2.622,-4.684 3.428,-7.187 0.747,-2.319 1.124,-4.87 1.07,-7.305 -0.065,-2.963 -2.179,-4.799 -5.169,-5.065 -4.534,-0.403 -8.106,1.408 -10.808,4.988 -1.08,1.431 -2.044,2.949 -3.06,4.427 -0.27,-0.873 0.094,-1.297 0.387,-1.766 2.176,-3.478 0.14,-8.341 -4.632,-7.604 -2.366,0.365 -4.841,1.298 -6.806,2.645 -2.129,1.46 -3.721,3.702 -5.423,5.473 0.48,-6.16 -1.017,-7.634 -7.22,-6.577 -1.059,4.005 -0.436,9.196 -6.105,10.65 -1.092,-0.06 -2.184,-0.121 -3.277,-0.181 0.404,-3.843 -0.697,-6.905 -4.444,-8.612 -0.444,-0.202 -0.999,-0.397 -1.24,-0.767 -1.43,-2.189 -3.473,-3.159 -5.978,-2.77 -2.26,0.351 -4.693,0.628 -6.654,1.677 -5.583,2.99 -8.74,8.012 -10.47,13.989 -0.37,1.277 -0.456,2.66 -0.969,3.868 -1.606,3.785 -3.943,6.795 -8.953,7.382 -0.162,-1.295 -0.593,-2.419 -0.357,-3.378 0.391,-1.588 1.191,-3.079 1.858,-4.594 1.337,-3.038 2.952,-5.981 3.981,-9.118 1.043,-3.18 0.625,-6.405 -2.313,-8.557 -2.693,-1.973 -5.672,-1.548 -8.517,-0.161 -3.084,1.504 -5.412,3.822 -6.997,6.874 -0.302,-0.629 -0.604,-1.258 -0.906,-1.888 -0.281,-4.612 -1.515,-5.415 -6.537,-4.513 -2.085,7.629 -4.178,15.109 -6.141,22.624 -0.37,1.418 -0.226,2.972 -0.314,4.463 -0.109,1.845 0.728,3.233 2.223,4.183 1.698,1.08 3.418,1.184 5.198,-0.476 0.198,-1.097 0.408,-2.402 0.672,-3.696 1.178,-5.774 3.471,-11.069 7.008,-15.785 1.6,-2.133 3.427,-4.056 6.295,-4.36 1.387,1.415 0.81,2.832 0.203,4.206 -0.939,2.125 -2.003,4.197 -2.896,6.341 -0.892,2.14 -1.895,4.282 -2.399,6.524 -1.102,4.906 1.427,8.148 6.387,8.567 3.826,0.324 7.229,-0.791 10.256,-3.091 1.163,-0.884 2.251,-1.865 3.371,-2.8 4.787,5.681 9.524,7.166 15.484,4.66 6.384,-2.685 9.954,-7.812 12.106,-14.23 -2.169,-0.647 -3.941,-1.175 -5.713,-1.704 l -0.109,0.142 c 4.252,0.711 8.473,0.503 12.385,-0.653 -0.789,4.026 -1.66,7.888 -2.262,11.791 -0.297,1.923 0.599,3.615 2.328,4.633 1.707,1.006 3.446,1.152 5.011,-0.374 2.979,-14.365 7.894,-22.245 14.9,-23.853 1.36,1.644 0.268,3.17 -0.344,4.631 -0.961,2.293 -2.229,4.461 -3.131,6.774 -0.836,2.144 -1.736,4.374 -1.947,6.628 -0.471,5.027 2.205,6.959 7.356,5.669 0.089,-0.139 0.229,-0.267 0.26,-0.417 0.166,-0.811 0.289,-1.632 0.457,-2.443 1.373,-6.619 3.967,-12.666 8.525,-17.74 1.515,-1.686 3.168,-3.305 6.2,-3.09 -0.098,1.139 0.024,2.114 -0.291,2.918 -0.846,2.161 -1.933,4.227 -2.821,6.374 -0.95,2.295 -2.082,4.573 -2.606,6.974 -1.331,6.097 1.429,9.499 7.585,9.121 2.556,-0.157 5.095,-1.26 7.546,-2.186 1.198,-0.453 2.175,-1.487 3.243,-2.252 5.661,6.306 10.183,6.525 18.859,0.979 5.511,5.069 8.922,4.848 18.053,-1.173 4.244,6.307 11.605,6.823 19.078,1.066 5.489,5.268 8.9,5.001 18.613,-1.609 5.434,6.88 12.317,5.717 19.361,3.065 4.494,-1.692 7.751,-4.944 10.82,-8.557 2.669,-3.141 5.482,-6.35 8.82,-8.688 5.652,-3.958 38.27075,-15.60128 21.91562,-0.9403 m -9.68077,0.84878 c 6.93626,-0.39321 9.28188,-1.96932 11.39415,-5.02548 -1.147,-1.641 -2.146,-3.072 -3.237,-4.633 -3.17,3.692 -6.865,4.383 -11.082,3.284 -1.446,-0.377 -2.932,-0.638 -4.416,-0.819 m -108.358,16.51 c 4.529,-0.339 5.578,-2.013 8.972,-14.307 -6.383,2.422 -9.4,7.233 -8.972,14.307 z"
   id="path3334"
   inkscape:connector-curvature="0"
   style="fill:#060606"
   sodipodi:nodetypes="cccccccccccccccccccccccccccccccccccccccccscccccccccsccccscccccccccccccccccccccccccccccccccccccccccccccccccccccccccccccccccccccccccccccccccccccccccccccccccccscccccccccccccccccscscccccccccccccccccccccccccccccccccscccccccccccccccccccccccccccccccccccsccccccccccc" />
		<path
   d="m 781.22234,168.71631 c -0.21438,4.81028 -7.62034,-2.13031 -13.27234,1.82769 -3.338,2.338 -6.152,5.547 -8.82,8.688 -3.07,3.613 -6.326,6.865 -10.82,8.557 -7.044,2.653 -13.927,3.815 -19.361,-3.065 -9.713,6.61 -13.124,6.876 -18.613,1.609 -7.473,5.757 -14.834,5.241 -19.078,-1.066 -9.132,6.02 -12.542,6.242 -18.053,1.173 -8.676,5.545 -13.197,5.327 -18.859,-0.979 -1.068,0.765 -2.046,1.8 -3.243,2.252 -2.451,0.927 -4.99,2.029 -7.546,2.186 -6.156,0.378 -8.916,-3.024 -7.585,-9.121 0.524,-2.401 1.657,-4.679 2.606,-6.974 0.888,-2.146 1.975,-4.212 2.821,-6.374 0.315,-0.804 0.193,-1.779 0.291,-2.918 -3.033,-0.215 -4.686,1.404 -6.2,3.09 -4.558,5.074 -7.153,11.121 -8.525,17.74 -0.168,0.811 -0.291,1.631 -0.457,2.443 -0.031,0.15 -0.17,0.279 -0.26,0.417 -5.151,1.29 -7.827,-0.642 -7.356,-5.669 0.211,-2.254 1.111,-4.484 1.947,-6.628 0.901,-2.313 2.17,-4.481 3.131,-6.774 0.612,-1.46 1.704,-2.986 0.344,-4.631 -7.006,1.608 -11.921,9.489 -14.9,23.853 -1.565,1.526 -3.304,1.38 -5.011,0.374 -1.728,-1.018 -2.624,-2.71 -2.328,-4.633 0.602,-3.903 1.473,-7.765 2.262,-11.791 -3.913,1.156 -8.133,1.364 -12.385,0.653 -3.434,-2.864 -4.876,-6.535 -4.154,-11.041 -0.79,0.06 -1.332,-0.027 -1.762,0.153 -5.478,2.297 -9.297,10.836 -7.999,17.374 0.384,1.935 1.698,3.322 3.693,3.579 1.406,0.181 2.874,-0.115 4.373,-0.202 -0.186,-0.729 -0.529,-1.295 -0.37,-1.566 1.495,-2.547 3.034,-5.071 4.669,-7.531 0.309,-0.465 1.093,-0.614 1.659,-0.908 1.772,0.528 3.544,1.057 5.713,1.704 -2.152,6.419 -5.721,11.545 -12.106,14.23 -5.96,2.506 -10.697,1.021 -15.484,-4.66 -1.12,0.935 -2.208,1.916 -3.371,2.8 -3.027,2.3 -6.43,3.415 -10.256,3.091 -4.96,-0.419 -7.49,-3.662 -6.387,-8.567 0.504,-2.242 1.507,-4.385 2.399,-6.524 0.894,-2.143 1.957,-4.215 2.896,-6.341 0.607,-1.374 1.184,-2.791 -0.203,-4.206 -2.869,0.304 -4.696,2.227 -6.295,4.36 -3.537,4.716 -5.83,10.01 -7.008,15.785 -0.264,1.294 -0.474,2.599 -0.672,3.696 -1.781,1.66 -3.501,1.555 -5.198,0.476 -1.495,-0.951 -2.332,-2.339 -2.223,-4.183 0.088,-1.491 -0.056,-3.045 0.314,-4.463 1.963,-7.515 4.056,-14.995 6.141,-22.624 5.022,-0.902 6.257,-0.098 6.537,4.513 -0.591,1.805 -1.181,3.611 -1.772,5.416 0.34,0.113 0.679,0.226 1.019,0.339 0.553,-1.289 1.106,-2.578 1.659,-3.867 1.585,-3.052 3.913,-5.37 6.997,-6.874 2.844,-1.387 5.824,-1.811 8.517,0.161 2.937,2.152 3.356,5.377 2.313,8.557 -1.029,3.137 -2.645,6.08 -3.981,9.118 -0.667,1.515 -1.466,3.006 -1.858,4.594 -0.236,0.959 0.195,2.083 0.357,3.378 5.01,-0.587 7.347,-3.598 8.953,-7.382 0.513,-1.208 0.599,-2.591 0.969,-3.868 1.731,-5.977 4.888,-10.999 10.47,-13.989 1.96,-1.05 4.393,-1.326 6.654,-1.677 2.505,-0.389 4.547,0.581 5.978,2.77 0.242,0.37 0.797,0.565 1.24,0.767 3.747,1.707 4.848,4.769 4.444,8.612 -3.29,-0.454 -5.052,-2.792 -6.753,-6.452 0.815,6.752 4.073,8.579 10.029,6.634 5.669,-1.454 5.046,-6.645 6.105,-10.65 6.202,-1.057 7.699,0.417 7.22,6.577 1.702,-1.771 3.294,-4.013 5.423,-5.473 1.965,-1.348 4.44,-2.28 6.806,-2.645 4.771,-0.736 6.808,4.126 4.632,7.604 -0.293,0.469 -0.657,0.893 -0.387,1.766 1.017,-1.478 1.98,-2.996 3.06,-4.427 2.702,-3.58 6.274,-5.391 10.808,-4.988 2.991,0.266 5.104,2.102 5.169,5.065 0.054,2.436 -0.323,4.986 -1.07,7.305 -0.806,2.504 -2.293,4.784 -3.428,7.187 -0.985,2.085 -2.291,4.124 -1.195,7.084 0.857,0.077 2.341,0.665 2.898,0.183 2.449,-2.123 5.066,-4.026 5.846,-7.69 2.762,-12.985 13.7,-20.657 26.845,-19.157 5.013,0.572 7.075,3.013 6.49,8.092 -1.741,-0.47 -3.447,-0.911 -5.143,-1.39 -9.367,-2.643 -19.631,4.117 -20.226,15.684 -0.217,4.212 0.664,4.846 5.352,4.52 4.25,-3.486 5.874,-8.376 7.471,-13.303 1.61,-4.964 3.148,-5.816 8.971,-4.828 -0.735,2.665 -1.49,5.291 -2.178,7.936 -0.501,1.924 -1.174,3.855 -1.301,5.814 -0.183,2.816 2.12,4.431 4.646,3.225 2.892,-1.38 5.358,-3.351 6.046,-6.814 0.858,-4.321 2.573,-8.289 5.5,-11.59 4.151,-4.681 9.235,-7.57 15.71,-7.466 0.979,0.016 1.96,-0.122 3.148,-0.202 1.15,-2.809 2.057,-5.664 3.46,-8.25 1.163,-2.144 2.714,-4.174 4.464,-5.871 1.317,-1.277 3.259,-1.708 5.095,-0.583 1.944,1.19 1.919,3.097 1.367,4.878 -0.883,2.851 -1.984,5.643 -3.125,8.405 -2.536,6.139 -5.312,12.185 -7.657,18.394 -0.853,2.259 -0.917,4.868 -1.017,7.331 -0.038,0.946 0.828,1.928 1.245,2.815 6.047,-1.397 7.862,-3.483 8.801,-8.965 1.176,-6.867 4.33,-12.524 10.619,-16.073 2.561,-1.445 5.292,-1.967 8.185,-1.623 5.018,0.596 7.692,4.03 6.984,9.051 -0.68,4.821 -3.584,8.245 -7.555,10.635 -2.823,1.7 -6.009,2.799 -9.032,4.166 -1.7,-1.355 -1.671,-3.079 -1.203,-4.559 3.702,-2.738 7.132,-5.275 10.471,-7.745 -0.008,-3.303 -0.008,-3.303 -2.451,-5.353 -7.83,3.111 -10.907,10.071 -7.835,17.723 -0.405,1.461 0.384,2.371 1.636,2.55 1.617,0.231 3.365,0.393 4.925,0.026 5.12,-1.205 9.562,-3.523 12.961,-7.817 2.354,-2.976 5.026,-5.812 7.985,-8.171 4.377,-3.489 10.43198,-4.78057 15.85498,-1.50957 M 706.019,181.836 c 0.09,0.18 0.18,0.359 0.217,0.433 -0.055,-0.05 -0.199,-0.18 -0.342,-0.311 0.443,-0.681 0.962,-1.325 1.316,-2.05 1.37,-2.808 2.67,-5.651 4.03,-8.464 1.148,-2.375 0.666,-5.477 3.236,-7.273 0.133,-0.093 -0.549,-1.354 -0.806,-1.962 -8.67,0.325 -14.501,6.401 -14.815,15.108 -0.187,5.181 2.189,6.68 7.164,4.519 z m -148.722,6.123 c -2.081,-1.863 -3.444,-3.083 -4.807,-4.303 0.284,2.508 1.468,3.942 4.807,4.303 z m 161.859,-0.98 c 2.45,1.093 4.016,0.056 5.14,-2.04 -1.713,0.68 -3.427,1.36 -5.14,2.04 z m -18.182,2.245 c 0.147,-0.423 0.293,-0.846 0.44,-1.269 -1.709,-0.19 -3.028,-1.999 -5.982,-0.531 2.344,0.761 3.943,1.281 5.542,1.8 z m -62.202,-4.821 c -0.815,2.179 -0.068,3.044 2.465,3.412 -1.122,-1.553 -1.793,-2.482 -2.465,-3.412 z m -64.099,-0.068 c -0.203,0.33 -0.405,0.661 -0.608,0.991 0.997,0.541 1.993,1.081 2.989,1.622 0.142,-0.232 0.285,-0.464 0.427,-0.696 -0.935,-0.639 -1.872,-1.278 -2.808,-1.917 z m 163.532,3.613 c 0.094,-0.197 0.187,-0.394 0.28,-0.592 -0.452,-0.313 -0.866,-0.754 -1.367,-0.904 -0.527,-0.157 -1.137,-0.035 -1.711,-0.035 -0.018,0.191 -0.037,0.383 -0.055,0.574 0.951,0.319 1.902,0.638 2.853,0.957 z m -76.834,0.683 c 0.151,-0.232 0.301,-0.465 0.452,-0.697 -0.753,-0.487 -1.505,-0.973 -2.258,-1.46 -0.148,0.23 -0.297,0.459 -0.445,0.689 0.75,0.489 1.501,0.978 2.251,1.468 z m 46.781,-7.234 0.347,0.193 0.036,-0.302 z"
   id="path3336"
   inkscape:connector-curvature="0"
   style="fill:#ffffff"
   sodipodi:nodetypes="ccccccccccccccccccccccccccccccccccccccccccccccccccccccccccccccccccccccccccsccccccccccscccccccccccccccccscccccccccccccccccccccccccccccccccccccccccccccccccccccccccccc" />
		<path
   d="m 772.841,163.26 c 1.484,0.18 2.971,0.442 4.416,0.819 4.217,1.099 7.912,0.408 11.082,-3.284 1.091,1.561 2.09,2.991 3.237,4.633 -1.802,2.87 -4.582,4.322 -7.795,4.467"
   id="path3338"
   inkscape:connector-curvature="0"
   style="fill:#fefefe" />
		<path
   d="m 818.636,153.757 c -0.117,2.75 -2.04,3.973 -4.204,5.019 -4.029,1.947 -8.078,3.854 -12.059,5.895 -4.885,2.504 -10.989,-0.555 -11.67,-5.973 -0.466,-3.708 0.282,-6.834 3.883,-8.9 4.019,-2.306 7.811,-5.009 11.841,-7.292 2.03,-1.15 4.354,-1.595 6.26,0.563 -0.321,0.357 -0.596,0.773 -0.97,1.061 -3.336,2.569 -3.823,4.153 -2.209,7.322 1.678,3.293 2.896,3.713 7.198,2.553 0.621,-0.168 1.286,-0.169 1.93,-0.248 z"
   id="path3340"
   inkscape:connector-curvature="0"
   style="fill:#686868" />
		<path
   d="m 818.636,153.757 c -0.644,0.078 -1.309,0.08 -1.929,0.247 -4.303,1.161 -5.521,0.74 -7.198,-2.553 -1.614,-3.169 -1.127,-4.753 2.209,-7.322 0.374,-0.288 0.649,-0.704 0.97,-1.061 4.648,-2.792 9.295,-5.584 13.943,-8.376 0.418,-0.231 0.836,-0.462 1.255,-0.693 l 0.295,-0.001 0.294,0.023 c 0.054,4.263 1.081,8.041 5.039,10.439 0.511,0.31 0.838,0.924 1.25,1.397 -5.377,2.635 -10.752,5.267 -16.128,7.9 z"
   id="path3342"
   inkscape:connector-curvature="0"
   style="fill:#fefefe" />
		<path
   d="m 843.802,124.917 c 1.545,-0.082 3.089,-0.164 4.634,-0.246 2.876,-0.379 3.349,-3.082 4.262,-5.035 3.816,-1.622 7.154,0.162 10.528,0.459 1.999,0.177 2.909,2.685 1.976,4.781 -0.999,2.246 -2.282,4.365 -3.667,6.962 -2.299,0.422 -4.872,0.894 -7.795,1.43 -0.607,0.984 -1.37,2.222 -2.133,3.46 -4.557,0.001 -6.673,-1.352 -7.541,-5.399 -0.442,-2.061 -0.198,-4.27 -0.264,-6.412 z"
   id="path3344"
   inkscape:connector-curvature="0"
   style="fill:#fcfcfc" />
		<path
   d="m 845.456,138.823 c -0.771,2.933 -3.85,2.741 -5.702,4.211 -4.215,0.245 -6.318,-2.373 -7.709,-5.817 -0.553,-1.369 -0.814,-2.856 -1.207,-4.289 l -0.026,0.017 c 0.31,-0.36 0.62,-0.72 0.93,-1.081 1.954,-1.076 4.798,-2.686 6.752,-3.762 0.663,1.23 0.546,2.949 1.079,4.233 1.197,2.883 2.611,5.512 5.883,6.488 z"
   id="path3346"
   inkscape:connector-curvature="0"
   style="fill:#fdfdfd" />
		<path
   d="m 736.127,179.934 c -3.073,-7.652 0.004,-14.613 7.835,-17.723 2.443,2.05 2.443,2.05 2.451,5.353 -3.339,2.47 -6.769,5.006 -10.471,7.745 -0.468,1.48 -0.497,3.204 1.203,4.559 -0.34,0.021 -0.679,0.044 -1.018,0.066 z m 1.259,-8.553 c 0.39,0.404 2.853,-1.231 3.984,-2.035 0.847,-0.8 1.556,-1.324 1.864,-2.828 0.203,-0.992 0.201,-1.507 -0.128,-1.842 -1.085,1.248 -4.928,5.794 -5.72,6.705 z"
   id="path3348"
   inkscape:connector-curvature="0" />
		<path
   d="m 664.484,179.769 c -0.428,-7.073 2.59,-11.885 8.972,-14.307 -3.394,12.294 -4.443,13.967 -8.972,14.307 z"
   id="path3350"
   inkscape:connector-curvature="0"
   style="fill:#f5f5f5" />
		<path
   d="m 845.456,138.823 c -3.272,-0.976 -4.505,-3.536 -5.702,-6.418 -0.533,-1.284 -0.898,-2.946 -1.261,-4.303 2.066,-1.24 3.242,-1.946 5.308,-3.185 0.066,2.142 -0.178,4.351 0.264,6.413 0.868,4.047 2.984,5.4 7.541,5.399 -1.943,1.01 -3.478,3.221 -6.15,2.094 z"
   id="path3352"
   inkscape:connector-curvature="0"
   style="fill:#6e6e6e" />
		<path
   d="m 830.838,132.928 c 0.394,1.433 0.654,2.921 1.207,4.289 1.391,3.443 3.495,6.061 7.709,5.817 -1.664,0.942 -2.088,1.182 -3.752,2.123 -1.239,-0.145 -1.978,-0.386 -2.49,-0.696 -3.958,-2.398 -4.985,-6.177 -5.039,-10.439 0.789,-0.364 1.577,-0.729 2.365,-1.094 z"
   id="path3354"
   inkscape:connector-curvature="0"
   style="fill:#5b5b5b" />
		<path
   d="m 602.09,168.137 c -5.957,1.945 -9.214,0.119 -10.029,-6.634 1.701,3.66 3.463,5.998 6.753,6.452 1.092,0.061 2.184,0.122 3.276,0.182 z"
   id="path3356"
   inkscape:connector-curvature="0" />
		<path
   d="m 547.762,163.79 c -0.553,1.289 -1.106,2.578 -1.659,3.867 -0.34,-0.113 -0.679,-0.226 -1.019,-0.339 0.591,-1.805 1.181,-3.611 1.772,-5.416 0.302,0.63 0.604,1.259 0.906,1.888 z"
   id="path3358"
   inkscape:connector-curvature="0" />
		<path
   d="m 620.85,168.87 c 0.251,-0.207 0.503,-0.414 0.754,-0.621 -0.164,0.296 -0.328,0.593 -0.491,0.889 l -0.263,-0.268 z"
   id="path3360"
   inkscape:connector-curvature="0"
   style="fill:#ffffff" />
		<path
   d="m 637.972,169.017 c 0.117,-0.278 0.234,-0.555 0.351,-0.833 -0.143,0.253 -0.285,0.505 -0.428,0.758 l 0.077,0.075 z"
   id="path3362"
   inkscape:connector-curvature="0"
   style="fill:#c9c9c9" />
		<path
   d="m 827.885,134 c -0.418,0.231 -0.836,0.462 -1.255,0.693 0.419,-0.231 0.837,-0.462 1.255,-0.693 z"
   id="path3364"
   inkscape:connector-curvature="0"
   style="fill:#5b5b5b" />
		<path
   d="m 831.741,131.864 c -0.31,0.36 -0.62,0.72 -0.93,1.081 0.311,-0.36 0.621,-0.72 0.93,-1.081 z"
   id="path3366"
   inkscape:connector-curvature="0"
   style="fill:#5b5b5b" />
		<path
   d="m 592.061,172.816 c -0.565,0.295 -1.35,0.443 -1.659,0.908 -1.634,2.459 -3.174,4.984 -4.669,7.531 -0.159,0.271 0.183,0.837 0.37,1.566 -1.499,0.087 -2.967,0.383 -4.373,0.202 -1.995,-0.257 -3.309,-1.643 -3.693,-3.579 -1.298,-6.537 2.521,-15.077 7.999,-17.374 0.43,-0.18 0.972,-0.093 1.762,-0.153 -0.722,4.506 0.72,8.178 4.154,11.041 l 0.109,-0.142 z m -11.541,7.427 c 4.98,-0.201 5.819,-3.638 7.312,-6.181 -1.262,-2.664 -2.408,-5.085 -3.731,-7.88 -3.139,4.222 -4.821,8.49 -3.581,14.061 z"
   id="path3368"
   inkscape:connector-curvature="0"
   style="fill:#101010" />
		<path
   d="m 706.019,181.836 c -4.976,2.161 -7.351,0.663 -7.165,-4.519 0.314,-8.708 6.145,-14.783 14.815,-15.108 0.257,0.609 0.939,1.869 0.806,1.962 -2.57,1.796 -2.088,4.898 -3.236,7.273 -1.36,2.813 -2.66,5.656 -4.03,8.464 -0.354,0.725 -0.873,1.369 -1.316,2.05 l 0.126,-0.122 z m 4.021,-16.658 c -6.226,2.036 -9.462,7.601 -8.52,14.651 4.768,-0.611 7.583,-5.452 8.52,-14.651 z"
   id="path3370"
   inkscape:connector-curvature="0" />
		<path
   d="m 557.297,187.959 c -3.339,-0.361 -4.523,-1.795 -4.807,-4.303 1.363,1.22 2.726,2.44 4.807,4.303 z"
   id="path3372"
   inkscape:connector-curvature="0"
   style="fill:#848484" />
		<path
   d="m 719.156,186.979 c 1.713,-0.68 3.427,-1.36 5.14,-2.04 -1.124,2.096 -2.691,3.133 -5.14,2.04 z"
   id="path3374"
   inkscape:connector-curvature="0"
   style="fill:#7d7d7d" />
		<path
   d="m 700.974,189.224 c -1.599,-0.519 -3.198,-1.038 -5.542,-1.8 2.954,-1.468 4.273,0.341 5.982,0.531 -0.147,0.423 -0.294,0.846 -0.44,1.269 z"
   id="path3376"
   inkscape:connector-curvature="0"
   style="fill:#8d8d8d" />
		<path
   d="m 638.772,184.403 c 0.672,0.929 1.343,1.859 2.465,3.412 -2.533,-0.368 -3.28,-1.232 -2.465,-3.412 z"
   id="path3378"
   inkscape:connector-curvature="0"
   style="fill:#939393" />
		
		
		
		<polygon
   points="708.535,181.289 708.499,181.59 708.152,181.397 "
   id="polygon3386"
   style="fill:#131313" />
		<path
   d="m 705.893,181.958 c 0.144,0.13 0.287,0.261 0.342,0.311 -0.037,-0.074 -0.127,-0.253 -0.217,-0.433 l -0.125,0.122 z"
   id="path3388"
   inkscape:connector-curvature="0"
   style="fill:#131313" />
		<path
   d="m 580.52,180.243 c -1.239,-5.571 0.443,-9.839 3.581,-14.061 0.0856,5.44665 2.47,5.216 3.731,7.88 -1.493,2.543 -2.333,5.98 -7.312,6.181 z"
   id="path3390"
   inkscape:connector-curvature="0"
   style="fill:#f8f8f8"
   sodipodi:nodetypes="cccc" />
		<path
   d="m 710.04,165.178 c -0.937,9.199 -3.751,14.04 -8.52,14.651 -0.942,-7.05 2.294,-12.615 8.52,-14.651 z"
   id="path3392"
   inkscape:connector-curvature="0"
   style="fill:#f9f9f9" />
		<path
   d="m 851.607,136.728 c 0,0 -4.967,0.527 -6.615,-2.809 -1.637,-3.313 -1.19,-9.003 -1.19,-9.003 l -0.913,0.548 c 0,0 -0.111,7.633 1.298,9.229 2.719,3.572 6.243,2.877 6.243,2.877 l 1.177,-0.842 z"
   id="path3394"
   inkscape:connector-curvature="0"
   style="fill:#575756" />
		<path
   d="m 843.802,124.917 -1.112,0.667 c 0,0 -0.112,7.104 1.103,8.416"
   id="path3396"
   inkscape:connector-curvature="0"
   style="fill:#575756" />
		<path
   d="m 845.456,138.823 c 0.953,0.376 1.638,0.459 2.249,0.209 0.543,-0.222 -4.295,-0.794 -5.766,-3.347 -1.471,-2.553 -2.351,-8.24 -2.351,-8.24 l -1.095,0.657 c 0,0 1.063,4.156 1.825,5.897 0.761,1.741 1.819,3.004 2.745,3.61 1.069,0.878 2.077,1.09 2.393,1.214 z"
   id="path3398"
   inkscape:connector-curvature="0"
   style="fill:#272727" />
		<path
   d="m 839.754,143.034 c 0,0 -3.558,-0.104 -5.281,-1.864 -1.723,-1.76 -2.73,-4.662 -2.977,-5.633 -0.247,-0.971 -0.685,-2.592 -0.685,-2.592 l -0.391,0.176 c 0,0 0.259,2.754 1.321,5.215 1.062,2.461 2.685,3.965 4.099,4.582 1.414,0.617 3.247,0.524 3.247,0.524"
   id="path3400"
   inkscape:connector-curvature="0"
   style="fill:#575756" />
		<path
   d="m 836.002,145.158 c 0,0 -3.235,-0.231 -4.776,-2.442 -1.541,-2.211 -2.045,-2.647 -2.38,-4.519 -0.335,-1.873 -0.477,-4.174 -0.477,-4.174 l 0.445,-0.206 c 0,0 0.219,2.871 0.507,4.101 0.288,1.231 1.922,4.075 2.592,4.687 2.096,1.911 4.552,2.291 4.552,2.291"
   id="path3402"
   inkscape:connector-curvature="0"
   style="fill:#272727" />
		<path
   d="m 816.937,157.234 c 0,0 -2.883,0.899 -4.725,0.717 -1.159,-0.331 -2.097,-0.074 -4.056,-2.342 -0.993,-1.15 -2.55,-3.58 -2.628,-5.867 -0.053,-1.528 1.055,-4.584 1.055,-4.584 l 1.615,-3.42 c 0,0 -1.789,0.514 -1.949,0.844 -0.16,0.33 -2.858,4.915 -2.246,7.982 0.779,4.789 3.251,6.437 3.251,6.437 0,0 1.634,1.556 3.213,2.241 1.579,0.685 3.856,0 3.856,0"
   id="path3404"
   inkscape:connector-curvature="0"
   style="fill:#3c3c3b" />
	</g>
<path
   d="m 774.22145,169.14904 c -0.951,-0.319 -1.95507,-1.96252 -5.0274,-0.38017 0.018,-0.191 1.18605,-1.75303 1.64599,-1.98822 2.15087,-0.88898 3.07204,1.23417 3.38141,2.36839 z"
   id="path3382-9"
   inkscape:connector-curvature="0"
   style="fill:#6f6f6f"
   sodipodi:nodetypes="cccc" /><path
   d="m 733.41704,186.69096 c 4.14368,1.44132 7.36028,1.11487 9.33845,0.78843 -0.41821,0.77986 -3.0481,1.61379 -4.92662,1.4357 -3.17028,-0.30053 -6.23187,-2.53683 -4.41183,-2.22413 z"
   id="path3374-4"
   inkscape:connector-curvature="0"
   style="fill:#7d7d7d"
   sodipodi:nodetypes="ccsc" /></g>
<g
   id="Calque_3"
   transform="translate(-71.013144,-73.784716)">
	<g
   id="g3407">
		<path
   d="m 221.944,164.434 c 4.886,-3.147 9.431,-2.315 14.041,1.783 -0.645,2.023 -1.398,4.05 -1.926,6.135 -0.57,2.252 -1.064,4.54 -1.357,6.843 -1.158,9.091 5.129,15.153 14.124,13.843 4.863,-0.709 9.201,-2.629 13.15,-5.312 9.198,8.104 18.07,4.265 27.043,-0.285 8.876,8.968 17.888,4.336 26.892,0.075 9.057,8.827 18.052,4.238 27.129,-0.175 8.051,7.999 16.669,5.243 25.342,1.258 0.781,0.686 1.462,1.437 2.282,1.978 4.8,3.166 8.429,1.558 9.771,-4.075 0.766,-3.216 1.703,-6.435 2.995,-9.47 1.167,-2.742 2.585,-5.491 5.348,-7.187 -0.216,1.514 -0.83,2.808 -1.318,4.146 -0.965,2.643 -1.915,5.295 -2.77,7.975 -0.771,2.416 0.012,4.632 1.359,6.596 1.797,2.619 4.501,3.239 7.497,2.926 3.098,-0.323 3.289,-2.726 3.722,-5.078 0.977,-5.297 2.992,-10.198 6.087,-14.619 0.564,-0.805 1.397,-1.421 2.782,-2.794 -1.709,4.736 -3.338,8.358 -4.313,12.149 -1.672,6.504 2.027,11.048 8.731,11.432 4.549,0.261 8.456,-1.306 12.255,-3.9 8.103,6.44 16.247,3.494 23.747,0.085 2.011,1.171 3.486,2.245 5.128,2.905 0.98,0.394 2.269,0.358 3.336,0.128 2.656,-0.572 3.525,-2.51 3.93,-5.085 1.015,-6.449 3.034,-12.515 7.965,-17.187 l 0.097,0.102 c -0.537,1.539 -1.091,3.073 -1.609,4.618 -0.893,2.665 -2.115,5.279 -2.569,8.019 -0.953,5.746 2.35,9.727 8.096,10.262 3.572,0.332 6.952,-0.319 10.094,-2.079 1.111,-0.622 2.203,-1.279 3.254,-1.891 3.131,3.625 6.943,5.047 11.308,4.607 5.21,-0.525 10.165,-2.145 14.137,-5.64 2.185,-1.922 4.154,-4.34 5.454,-6.921 0.759,-1.506 0.316,-3.853 -0.154,-5.675 -0.485,-1.883 -2.15,-2.806 -4.359,-2.788 -2.268,2.048 -4.433,4.361 -6.955,6.179 -2.477,1.785 -5.233,3.543 -8.827,1.632 0.417,-1.886 0.7,-3.684 1.218,-5.411 1.146,-3.82 2.783,-6.847 7.596,-7.28 3.503,-0.315 6.538,-2.43 8.523,-5.553 2.944,-4.63 1.226,-8.604 -4.248,-9.775 0.129,-0.643 0.21,-1.302 0.397,-1.929 0.765,-2.563 -0.093,-4.634 -2.118,-6.141 -2.037,-1.515 -4.426,-1.787 -6.529,-0.292 -1.99,1.415 -3.97,3.027 -5.439,4.946 -1.889,2.467 -3.264,5.328 -4.997,8.249 -3.368,-2.247 -5.06,0.199 -6.676,2.612 -2.644,-3.887 -3.603,-4.688 -6.587,-5.377 -4.915,-1.135 -8.44,1.945 -11.705,4.133 -1.789,-1.106 -3.073,-2.191 -4.555,-2.76 -4.517,-1.737 -7.249,0.16 -7.884,4.906 -0.46,3.437 -1.092,6.908 -2.181,10.186 -0.915,2.754 -2.341,5.507 -5.808,6.033 l 0.097,0.097 c 0.802,-1.018 1.576,-2.059 2.412,-3.049 2.459,-2.914 3.654,-6.261 3.549,-10.074 -0.13,-4.738 -2.497,-7.541 -7.068,-8.986 -6.081,-1.923 -14.097,1.418 -18.191,7.339 -1.116,1.613 -2.122,3.302 -3.657,5.703 0.168,-1.43 0.199,-1.912 0.284,-2.385 1.427,-7.921 -4.038,-13.039 -11.697,-10.798 -2.304,0.674 -4.446,1.897 -6.715,2.892 -2.359,-2.553 -5.168,-4.402 -8.756,-3.198 -3.063,1.028 -5.939,2.615 -8.978,3.992 -4.099,-3.867 -5.714,-4.124 -10.972,-1.491 -0.776,3.899 -1.579,7.933 -2.382,11.966 -0.271,0.023 -0.543,0.039 -0.815,0.05 0.093,-0.814 0.135,-1.638 0.286,-2.441 1.146,-6.086 -1.561,-10.341 -7.522,-11.714 -5.822,-1.341 -10.661,0.681 -14.927,4.502 -1.323,1.185 -2.554,2.472 -3.828,3.712 l -0.097,-0.09 c 0.907,-3.345 2.037,-6.649 2.67,-10.046 0.938,-5.027 -1.064,-9.309 -4.981,-11.584 -3.134,-1.821 -6.315,-1.684 -9.592,-0.384 -5.09,2.019 -8.588,5.868 -11.782,10.588 -0.196,-0.981 -0.329,-1.454 -0.38,-1.935 -1.009,-9.436 -10.241,-11.464 -16.401,-7.93 -5.159,2.96 -8.6,7.238 -11.395,12.238 -1.112,1.99 -2.079,4.061 -3.296,6.457 -2.763,-4.904 -6.923,-6.203 -11.617,-5.969 -4.596,0.228 -8.294,2.817 -11.823,5.522 -0.552,-2.006 -0.612,-4.06 -1.627,-5.378 -0.927,-1.204 -2.889,-1.612 -4.516,-2.432 0.123,-0.438 0.327,-1.068 0.475,-1.711 0.583,-2.538 -0.162,-4.663 -2.266,-6.149 -2.081,-1.469 -4.44,-1.709 -6.552,-0.206 -1.86,1.324 -3.692,2.835 -5.101,4.61 -1.728,2.177 -3.002,4.714 -4.415,7.001 -0.349,0.026 -0.53,0.088 -0.679,0.042 -0.792,-0.243 -1.594,-0.469 -2.36,-0.781"
   id="path3409"
   inkscape:connector-curvature="0"
   style="fill:#ffffff" />
		<path
   d="m 230.031,152.906 c 0.947,0.156 7.645,2.148 7.849,2.22 0.577,0.202 1.167,0.372 1.752,0.552 0.148,0.046 0.33,-0.016 0.679,-0.042 1.412,-2.287 2.687,-4.824 4.415,-7.001 1.409,-1.775 3.24,-3.286 5.101,-4.61 2.111,-1.503 4.471,-1.263 6.552,0.206 2.104,1.486 2.849,3.61 2.266,6.149 -0.148,0.643 -0.352,1.273 -0.475,1.711 1.628,0.82 3.589,1.228 4.516,2.432 1.015,1.318 1.076,3.372 1.627,5.378 3.529,-2.705 7.227,-5.293 11.823,-5.522 4.694,-0.233 8.854,1.065 11.617,5.969 1.217,-2.397 2.183,-4.468 3.296,-6.457 2.795,-4.999 6.236,-9.278 11.395,-12.238 6.16,-3.535 15.392,-1.506 16.401,7.93 0.051,0.481 0.184,0.954 0.38,1.935 3.194,-4.72 6.692,-8.569 11.782,-10.588 3.277,-1.3 6.458,-1.437 9.592,0.384 3.916,2.276 5.918,6.557 4.981,11.584 -0.633,3.396 -1.013,6.10625 -2.95125,9.8585 -0.804,0.993 -1.43775,2.1035 -2.11175,3.1785 -2.865,4.573 -6.572,8.332 -10.89,11.517 -1.411,1.041 -2.866,2.023 -5.006,3.528 6.466,0.207 11.17,-1.972 14.056,-6.456 2.165,-3.366 2.78175,-7.877 4.79875,-11.52125 1.11675,-1.83375 2.03625,-2.49675 3.35925,-3.68075 4.266,-3.82 9.105,-5.843 14.927,-4.502 5.961,1.373 8.668,5.628 7.522,11.714 -0.151,0.803 -0.193,1.627 -0.286,2.441 -2.294,4.263 -5.448,7.774 -9.307,10.68 4.758,-2.274 9.289,-4.751 10.122,-10.73 0.803,-4.033 1.606,-8.067 2.382,-11.966 5.258,-2.633 6.873,-2.376 10.972,1.491 3.039,-1.377 5.915,-2.964 8.978,-3.992 3.587,-1.204 6.397,0.645 8.756,3.198 2.269,-0.995 4.412,-2.218 6.715,-2.892 7.66,-2.241 13.124,2.877 11.697,10.798 -0.085,0.472 -0.116,0.955 -0.284,2.385 1.534,-2.401 2.541,-4.09 3.657,-5.703 4.094,-5.921 12.11,-9.262 18.191,-7.339 4.57,1.445 6.937,4.248 7.068,8.986 0.105,3.813 -1.089,7.16 -3.549,10.074 -0.835,0.99 -1.61,2.031 -2.412,3.049 -0.322,-0.083 -0.627,-0.04 -0.914,0.128 -1.825,1.058 -3.651,2.115 -5.476,3.173 2.169,0.324 3.91,-0.339 5.341,-1.806 0.317,-0.531 0.635,-1.062 0.952,-1.592 3.467,-0.526 4.893,-3.279 5.808,-6.033 1.089,-3.278 1.722,-6.749 2.181,-10.186 0.635,-4.746 3.367,-6.643 7.884,-4.906 1.482,0.57 2.766,1.655 4.555,2.761 3.265,-2.188 6.79,-5.268 11.705,-4.133 2.984,0.689 3.943,1.49 6.587,5.377 1.616,-2.414 3.308,-4.859 6.676,-2.612 1.733,-2.921 3.108,-5.781 4.997,-8.249 1.469,-1.919 3.449,-3.531 5.439,-4.946 2.102,-1.495 4.492,-1.223 6.529,0.292 2.025,1.507 2.883,3.577 2.118,6.141 -0.187,0.627 -0.268,1.286 -0.397,1.929 5.474,1.171 7.192,5.145 4.248,9.775 -1.985,3.122 -5.02,5.238 -8.523,5.553 -4.813,0.433 -6.45,3.46 -7.596,7.28 -0.518,1.727 -0.801,3.525 -1.218,5.411 3.594,1.911 6.35,0.152 8.827,-1.632 2.523,-1.817 4.687,-4.131 6.955,-6.179 2.209,-0.018 3.874,0.904 4.359,2.788 0.47,1.822 0.912,4.17 0.154,5.675 -1.3,2.581 -3.27,4.999 -5.454,6.921 -3.972,3.495 -8.928,5.115 -14.137,5.64 -4.364,0.44 -8.177,-0.982 -11.308,-4.607 -1.051,0.612 -2.143,1.269 -3.254,1.891 -3.143,1.76 -6.523,2.412 -10.094,2.079 -5.746,-0.535 -9.049,-4.516 -8.096,-10.262 0.454,-2.74 1.677,-5.354 2.569,-8.019 0.518,-1.546 1.071,-3.079 1.609,-4.618 0.231,-0.127 0.462,-0.254 0.693,-0.381 -0.14,-0.157 -0.281,-0.314 -0.421,-0.472 -0.123,0.25 -0.246,0.501 -0.369,0.751 -4.931,4.672 -6.95,10.738 -7.965,17.187 -0.405,2.575 -1.274,4.513 -3.93,5.085 -1.067,0.23 -2.356,0.265 -3.336,-0.128 -1.642,-0.66 -3.117,-1.734 -5.128,-2.905 -7.499,3.409 -15.644,6.355 -23.747,-0.085 -3.799,2.595 -7.707,4.161 -12.255,3.9 -6.703,-0.384 -10.403,-4.928 -8.731,-11.432 0.974,-3.791 2.604,-7.413 4.313,-12.149 -1.384,1.373 -2.218,1.989 -2.782,2.794 -3.095,4.421 -5.11,9.322 -6.087,14.619 -0.434,2.352 -0.624,4.754 -3.722,5.078 -2.996,0.313 -5.7,-0.307 -7.497,-2.926 -1.348,-1.964 -2.13,-4.18 -1.359,-6.596 0.855,-2.68 1.805,-5.332 2.77,-7.975 0.489,-1.339 1.102,-2.632 1.318,-4.146 -2.763,1.696 -4.182,4.444 -5.348,7.187 -1.291,3.035 -2.228,6.254 -2.995,9.47 -1.342,5.633 -4.971,7.241 -9.771,4.075 -0.82,-0.541 -1.5,-1.292 -2.282,-1.978 -8.672,3.985 -17.291,6.74 -25.342,-1.258 -9.077,4.413 -18.071,9.002 -27.129,0.175 -9.004,4.261 -18.016,8.893 -26.892,-0.075 -8.973,4.549 -17.845,8.389 -27.043,0.285 -3.949,2.683 -8.287,4.603 -13.15,5.312 -8.995,1.311 -15.283,-4.751 -14.124,-13.843 0.293,-2.302 0.787,-4.591 1.357,-6.843 0.528,-2.085 1.281,-4.112 1.926,-6.135 -4.61,-4.098 -8.80145,-5.19516 -13.68745,-2.04816 -1.29192,0.59723 -4.10671,7.34697 -2.69124,15.87146 0.84825,5.10846 7.5489,43.0946 -1.96968,51.58355 -1.96465,1.75213 -10.43587,4.5977 -20.01699,2.80819 -7.21569,-1.3477 -13.40299,-4.34728 -19.00799,-9.02109 -2.8854,-2.81282 -16.30797,-15.54935 -7.24051,-12.7255 0,0 1.98219,-6.96356 4.42238,-1.72509 2.76849,5.94324 16.97751,13.55421 25.11176,14.59398 4.68068,0.59831 8.07961,1.64258 10.92649,-4.25585 1.05779,-2.19162 1.84783,-5.65231 2.15401,-8.97652 0.33948,-3.6856 0.0363,-7.66563 -0.19187,-9.55833 -0.66714,-5.53436 -0.23282,-7.03183 -5.06211,-24.42038 -0.56696,-2.04145 -0.65714,-9.50912 0.18634,-12.84139 0.97314,-3.84451 2.21143,-5.09242 2.4299,-5.46173 1.76156,-2.97777 5.76608,-5.63278 8.92076,-6.48857 3.95225,-1.07215 7.6947,-1.31322 9.24765,-1.13159 m 50.9,25.067 c -1.565,0.784 -3.129,1.568 -4.694,2.352 0.155,0.293 0.31,0.587 0.465,0.88 1.614,-0.872 3.229,-1.744 4.843,-2.615 1.422,-1.059 3.382,-1.645 3.144,-4.218 -1.252,1.201 -2.505,2.401 -3.758,3.601 z M 218.73,163.77 c 2.876,-2.428 6.406,-3.503 10.257,-3.019 4.5,0.565 8.574,2.229 12.231,4.557 -1.406,2.299 -3.122,4.255 -3.866,6.528 -1.021,3.117 -1.543,6.454 -1.847,9.737 -0.451,4.873 3.907,9.33 8.744,9.511 4.868,0.182 9.152,-1.373 13.137,-3.99 1.065,-0.7 2.095,-1.453 3.104,-2.155 7.059,7.622 15.222,7.412 26.99,-0.466 5.277,6.234 9.593,7.577 17.548,4.862 3.367,-1.149 6.475,-3.057 9.802,-4.669 2.972,5.347 7.749,6.683 13.551,5.515 0.816,-0.164 1.641,-0.281 2.462,-0.419 0.437,-0.179 0.875,-0.358 1.312,-0.537 3.227,-1.543 6.453,-3.087 9.706,-4.643 6.016,7.666 13.917,7.984 25.615,0.944 2.984,4.941 3.547,5.194 8.007,3.601 3.271,-14.765 7.993,-22.327 14.936,-23.878 1.339,1.851 0.174,3.508 -0.514,5.123 -1.041,2.442 -2.403,4.753 -3.354,7.225 -0.763,1.987 -1.468,4.111 -1.583,6.208 -0.253,4.623 2.655,6.544 7.586,5.145 0.156,-0.886 0.299,-1.86 0.502,-2.82 1.325,-6.273 3.767,-12.038 7.87,-17.02 1.67,-2.027 3.499,-3.863 6.641,-3.94 0.824,2.732 -0.762,4.636 -1.577,6.715 -1.389,3.543 -3.248,6.993 -4.007,10.669 -1.074,5.204 1.841,8.454 7.176,8.214 2.726,-0.123 5.46,-1.202 8.076,-2.16 1.467,-0.537 2.702,-1.71 3.968,-2.548 6.76,6.054 12.888,5.887 24.985,-0.457 2.512,4.642 2.98,4.879 7.733,3.713 0.303,-1.312 0.661,-2.747 0.963,-4.194 1.138,-5.437 3.233,-10.478 6.476,-14.98 1.737,-2.411 3.674,-4.737 7.608,-5.089 -0.165,1.473 -0.076,2.783 -0.489,3.91 -0.798,2.177 -1.926,4.23 -2.829,6.371 -0.902,2.138 -1.946,4.26 -2.489,6.495 -1.302,5.359 1.411,8.798 6.94,9.002 3.814,0.14 7.175,-1.187 10.146,-3.525 0.835,-0.657 1.588,-1.418 2.667,-2.392 2.12,5.373 6.001,6.479 10.721,6.161 6.696,-0.452 12.152,-3.245 16.255,-8.511 2.543,-3.264 2.348,-4.704 -0.243,-7.25 -3.23,2.379 -6.246,5.01 -9.65,6.967 -2.334,1.342 -5.359,2.8 -7.894,0.48 -2.323,-2.127 -1.206,-4.967 -0.399,-7.488 0.896,-2.798 1.988,-5.534 2.994,-8.297 1.695,-0.437 3.368,-1.049 5.091,-1.271 3.082,-0.397 5.759,-1.485 7.803,-3.863 1.765,-2.053 2.03,-4.264 0.751,-6.807 -2.55,1.342 -4.77,2.512 -7.873,4.145 1.45,-3.477 2.588,-5.835 3.409,-8.298 0.583,-1.751 0.774,-3.719 -1.205,-4.877 -1.792,-1.05 -3.629,-0.592 -5.113,0.628 -3.888,3.197 -6.42,7.266 -7.803,12.298 1.378,0.268 2.323,0.452 3.268,0.636 -0.006,0.094 -0.013,0.187 -0.019,0.281 -2.905,-0.182 -5.81,-0.364 -8.855,-0.555 -0.779,1.833 -0.342,3.4 1.49,4.522 1.03,0.631 2.113,1.175 3.172,1.759 -0.145,0.055 -0.29,0.109 -0.434,0.165 -0.155,0.06 -0.308,0.122 -0.463,0.184 -2.798,0.331 -2.342,2.947 -2.904,4.579 -1.375,3.996 -3.41,7.504 -6.347,10.48 -1.525,1.545 -3.241,2.911 -5.655,1.809 -0.599,-3.006 -0.502,-3.286 1.025,-6.481 1.563,-3.27 3.245,-6.511 4.458,-9.913 1.13,-3.169 0.609,-6.346 -2.248,-8.507 -2.652,-2.005 -5.803,-1.834 -8.397,-0.136 -2.57,1.682 -4.667,4.087 -6.971,6.174 -0.334,-0.001 -0.666,0.016 -0.998,0.051 0.068,-5.772 -1.487,-6.973 -7.114,-5.517 -0.849,3.875 -1.513,7.792 -2.581,11.594 -2.044,7.274 -10.526,13.626 -17.877,13.498 -2.251,-0.039 -4.414,-0.543 -4.403,-3.554 l -0.12,0.104 c 7.874,-0.727 14.067,-4.224 17.153,-11.673 2.891,-6.98 -0.949,-11.982 -8.462,-11.669 -4.828,0.201 -8.54,2.544 -11.492,6.195 -3.695,4.571 -5.554,9.794 -4.95,15.524 -3.023,1.896 -4.664,6.022 -9.055,4.043 -0.545,-3.055 1.229,-5.226 2.242,-7.637 1.344,-3.198 3.157,-6.343 3.738,-9.689 1.185,-6.823 -2.915,-10.169 -9.522,-8.065 -1.83,0.583 -3.494,1.868 -5.051,3.068 -1.102,0.849 -1.896,2.097 -2.948,3.305 -0.345,-6.276 -3.726,-8.547 -9.248,-6.089 -2.212,0.985 -4.092,2.782 -6.002,4.355 -0.993,0.818 -1.724,1.955 -2.756,3.162 0.026,-6.821 -1.443,-8.047 -7.113,-6.411 -0.839,3.936 -1.674,7.826 -2.496,11.72 -1.595,7.555 -11.405,12.997 -17.663,13.291 -1.759,0.083 -3.662,-0.115 -4.375,-2.691 1.69,-0.611 3.213,-1.142 4.722,-1.711 4.471,-1.683 8.369,-4.208 10.936,-8.312 2.157,-3.449 2.664,-7.333 0.545,-10.881 -2.089,-3.497 -5.859,-3.49 -9.403,-2.989 -1.762,0.249 -3.556,0.918 -5.123,1.784 -4.102,2.266 -6.779,5.876 -8.444,10.169 -1.011,2.608 -1.638,5.365 -2.352,7.768 -1.5,1.159 -2.77,2.227 -4.127,3.169 -2.922,2.028 -6.081,3.387 -9.733,3.447 -2.504,0.041 -4.182,-0.808 -4.611,-3.713 1.318,-0.826 2.714,-1.67 4.08,-2.561 6.714,-4.376 11.9,-10.073 15.201,-17.441 1.547,-3.454 1.892,-7.061 1.576,-10.748 -0.313,-3.648 -2.439,-5.622 -6.083,-6.053 -4.103,-0.485 -7.721,0.766 -10.463,3.657 -2.492,2.626 -4.75,5.585 -6.576,8.709 -3.824,6.542 -5.785,13.742 -6.272,21.239 -3.89,3.814 -8.03,6.76 -13.586,6.876 -3.155,0.066 -3.342,-0.127 -4.587,-3.908 1.106,-0.655 2.253,-1.314 3.38,-2.006 5.639,-3.463 10.161,-8.049 13.625,-13.674 2.685,-4.36 4.141,-9.061 3.745,-14.237 -0.338,-4.416 -2.576,-6.47 -7.055,-6.72 -3.752,-0.209 -7.022,1.064 -9.492,3.664 -2.495,2.627 -4.786,5.559 -6.621,8.678 -3.934,6.684 -5.818,14.08 -6.36,21.639 -3.81,3.815 -8.128,6.17 -13.279,6.796 -3.59,0.437 -4.734,-0.596 -5.444,-4.567 l -0.119,0.093 c 1.225,0.251 2.6,0.99 3.649,0.668 4.507,-1.383 8.705,-3.558 11.49,-7.476 1.385,-1.949 2.428,-4.409 2.784,-6.766 0.759,-5.023 -2.144,-8.214 -7.263,-8.636 -5.423,-0.447 -9.708,1.793 -13.129,5.801 -3.567,4.178 -5.373,9.091 -5.444,14.448 -1.603,1.24 -2.956,2.478 -4.49,3.422 -1.681,1.034 -3.454,2.031 -5.319,2.634 -5.672,1.832 -8.2,-0.402 -6.649,-6.068 1.035,-3.78 2.717,-7.382 3.738,-10.082 4.108,-1.263 7.431,-1.814 10.289,-3.277 3.88,-1.986 4.48,-4.698 2.724,-8.442 -2.074,1.283 -4.15,2.567 -6.225,3.851 -0.407,-0.406 -0.815,-0.813 -1.222,-1.22 1.109,-2.392 2.261,-4.765 3.312,-7.182 0.824,-1.894 0.599,-3.671 -1.35,-4.714 -1.831,-0.98 -3.541,-0.605 -4.84,1.115 -2.792,3.698 -5.824,7.255 -7.062,11.878 -0.973,0.025 -1.945,0.05 -2.918,0.075 -1.075,-0.443 -2.199,-0.796 -3.217,-1.345 -8.069,-4.35 -15.459,-2.681 -22.271,2.699 m 46.116,4.662 c -3.739,1.391 -7.575,2.818 -11.663,4.339 -1.979,3.343 -3.664,7.011 -3.435,11.281 5.398,0.818 11.072,-2.25 12.288,-6.388 0.925,-3.148 1.909,-6.279 2.81,-9.232 z m 38.015,15.729 c 8.596,0.319 13.422,-3.881 13.175,-11.155 -4.276,3.621 -8.64,7.316 -13.175,11.155 z m 176.756,-0.498 c 4.895,-3.384 7.014,-8.512 8.664,-14.098 -0.935,-1.403 -1.837,-2.758 -2.919,-4.383 0.511,7.102 -3.762,12.335 -5.745,18.481 z m -62.517,0.933 c 4.517,-2.367 4.889,-5.806 4.801,-9.475 -1.448,2.119 -2.614,4.382 -3.738,6.666 -0.328,0.668 -0.534,1.395 -1.063,2.809 z"
   inkscape:connector-curvature="0"
   style="fill:#070707"
   sodipodi:nodetypes="cccccccccccccccccccscccccccscccccccccccccccccccccccccccccccccccccccccccccccccccccccccccccccccccccccccccccccssscssssssssssccccccccccccccccccccccccccccccccccccccccccccsccccccccccccccccccccccccccccccccccccccccccccccccccccccccccccccccccccccccccccsccccccccccccccccccccccccccccccccccccccccccccc"
   id="path94" />
		
		<path
   d="m 221.15534,162.28499 c -1.2315,1.01029 -3.21681,3.78843 -3.52092,5.65836 -0.45832,2.81812 -0.79228,8.26637 -0.32418,11.36331 1.49458,9.88814 3.62628,22.51783 3.56241,26.54964 -0.1497,9.44974 -0.23905,18.98161 -2.94303,22.41086 -2.93416,3.72117 -6.73185,5.29845 -11.50462,5.02169 -13.72711,0.83436 -21.31067,-4.33927 -28.41674,-10.46589 -8.14967,-7.02635 -9.49463,-13.97188 -2.18753,-6.76717 3.93516,3.88002 13.14868,8.62182 18.69282,10.75491 6.24977,2.40457 13.59573,3.06622 17.14755,-0.7663 1.40704,-2.52859 3.10889,-6.93453 3.55777,-12.94624 0.57743,-7.73345 -0.6292,-18.12415 -4.14928,-30.59397 -2.4329,-8.61851 -0.0374,-17.92697 0.71024,-19.04179 7.25124,-10.8125 18.6755,-9.14849 24.94722,-5.76741 1.018,0.549 2.142,0.901 3.217,1.345 1.352,1.05 2.805,1.675 4.771,0.674 -0.618,-0.249 -1.235,-0.499 -1.853,-0.748 1.238,-4.623 4.27,-8.18 7.062,-11.878 1.299,-1.72 3.009,-2.095 4.84,-1.115 1.949,1.043 2.174,2.819 1.35,4.714 -1.051,2.417 -2.204,4.79 -3.312,7.182 -0.835,0.316 -1.67,0.631 -2.505,0.947 0.141,0.407 0.281,0.814 0.422,1.22 1.102,-0.316 2.203,-0.632 3.305,-0.948 2.075,-1.284 4.15,-2.568 6.225,-3.851 1.757,3.743 1.157,6.456 -2.724,8.442 -2.858,1.463 -6.181,2.015 -10.289,3.277 -1.021,2.7 -2.703,6.302 -3.738,10.082 -1.551,5.666 0.977,7.9 6.649,6.068 1.865,-0.603 3.638,-1.599 5.319,-2.634 1.534,-0.944 2.888,-2.182 4.49,-3.422 0.071,-5.357 1.878,-10.27 5.444,-14.448 3.421,-4.008 7.706,-6.248 13.129,-5.801 5.12,0.422 8.023,3.613 7.263,8.636 -0.356,2.356 -1.399,4.817 -2.784,6.766 -2.785,3.918 -6.983,6.093 -11.49,7.476 -1.049,0.322 -2.424,-0.417 -3.649,-0.668 0,-1.136 0,-2.273 0,-3.617 2.386,-0.324 4.211,-1.278 5.668,-3.183 1.516,-1.982 3.471,-3.627 5.224,-5.41 0.331,-0.202 0.624,-0.621 0.624,-0.621 0,0 0.225,-1.617 -1.672,-2.129 -2.232,-0.602 -4.772,-0.917 -6.553,1 -3.675,3.957 -5.546,8.462 -3.173,13.867 0.709,3.971 1.854,5.003 5.444,4.567 5.151,-0.626 9.468,-2.981 13.279,-6.796 0.542,-7.559 2.427,-14.954 6.36,-21.639 1.835,-3.119 4.126,-6.052 6.621,-8.678 2.47,-2.6 5.74,-3.874 9.492,-3.664 4.479,0.25 6.717,2.304 7.055,6.72 0.396,5.176 -1.06,9.878 -3.745,14.237 -3.464,5.625 -7.986,10.211 -13.625,13.674 -1.127,0.692 -2.275,1.351 -3.38,2.006 1.245,3.781 1.432,3.974 4.587,3.908 5.556,-0.116 9.696,-3.062 13.586,-6.876 0.487,-7.496 2.448,-14.697 6.272,-21.239 1.826,-3.125 4.084,-6.083 6.576,-8.709 2.743,-2.89 6.36,-4.141 10.463,-3.657 3.644,0.43 5.771,2.405 6.083,6.053 0.316,3.687 -0.029,7.294 -1.576,10.748 -3.301,7.368 -8.487,13.065 -15.201,17.441 -1.366,0.89 -2.762,1.735 -4.08,2.561 0.429,2.905 2.107,3.754 4.611,3.713 3.652,-0.06 6.811,-1.419 9.733,-3.447 1.357,-0.942 2.627,-2.01 4.127,-3.169 0.714,-2.403 1.341,-5.16 2.352,-7.768 1.665,-4.293 4.343,-7.903 8.444,-10.169 1.566,-0.865 3.36,-1.535 5.123,-1.784 3.545,-0.502 7.315,-0.508 9.403,2.989 2.119,3.548 1.612,7.432 -0.545,10.881 -2.567,4.104 -6.466,6.629 -10.936,8.312 -1.509,0.568 -3.032,1.1 -4.722,1.711 0.714,2.576 2.616,2.774 4.375,2.691 6.258,-0.294 16.068,-5.736 17.663,-13.291 0.822,-3.893 1.657,-7.784 2.496,-11.72 5.67,-1.635 7.139,-0.409 7.113,6.411 1.032,-1.207 1.763,-2.343 2.756,-3.162 1.91,-1.574 3.79,-3.37 6.002,-4.355 5.522,-2.458 8.903,-0.187 9.248,6.089 1.052,-1.208 1.846,-2.456 2.948,-3.305 1.557,-1.2 3.221,-2.485 5.051,-3.068 6.607,-2.104 10.707,1.242 9.522,8.065 -0.581,3.347 -2.394,6.491 -3.738,9.689 -1.014,2.411 -2.788,4.582 -2.242,7.637 4.391,1.979 6.032,-2.147 9.055,-4.043 -0.604,-5.731 1.254,-10.954 4.95,-15.524 2.952,-3.651 6.664,-5.994 11.492,-6.195 7.513,-0.313 11.353,4.689 8.462,11.669 -3.086,7.45 -9.279,10.946 -17.153,11.673 0,-1.321 0,-2.642 0,-3.881 3.819,-3.656 9.553,-5.242 10.781,-11.113 -2.651,-1.605 -3.522,-1.669 -5.364,-0.464 -4.384,2.869 -6.825,9.943 -5.298,15.353 -0.011,3.011 2.152,3.515 4.403,3.554 7.351,0.127 15.833,-6.224 17.877,-13.498 1.069,-3.803 1.732,-7.719 2.581,-11.594 5.627,-1.456 7.182,-0.255 7.114,5.517 -1.105,1.02 -1.906,2.175 -1.236,4.042 0.745,-1.365 1.49,-2.729 2.234,-4.094 2.304,-2.088 4.401,-4.492 6.971,-6.174 2.594,-1.698 5.745,-1.87 8.397,0.136 2.857,2.16 3.378,5.338 2.248,8.507 -1.213,3.402 -2.895,6.643 -4.458,9.913 -1.527,3.195 -1.624,3.475 -1.025,6.481 2.414,1.102 4.13,-0.264 5.655,-1.809 2.937,-2.976 4.973,-6.484 6.347,-10.48 0.562,-1.632 0.106,-4.248 2.904,-4.579 2.008,1.971 4.522,0.691 6.78,1.054 -1.006,2.763 -2.098,5.499 -2.994,8.297 -0.808,2.521 -1.924,5.361 0.399,7.488 2.534,2.32 5.56,0.862 7.894,-0.48 3.404,-1.957 6.42,-4.588 9.65,-6.967 2.591,2.546 2.786,3.986 0.243,7.25 -4.103,5.266 -9.559,8.059 -16.255,8.511 -4.72,0.318 -8.601,-0.788 -10.721,-6.161 -1.079,0.974 -1.832,1.735 -2.667,2.392 -2.971,2.338 -6.332,3.666 -10.146,3.525 -5.529,-0.203 -8.242,-3.642 -6.94,-9.002 0.543,-2.236 1.587,-4.358 2.489,-6.495 0.904,-2.141 2.032,-4.195 2.829,-6.371 0.413,-1.127 0.324,-2.437 0.489,-3.91 -3.935,0.353 -5.871,2.678 -7.608,5.089 -3.243,4.502 -5.338,9.543 -6.476,14.98 -0.303,1.447 -0.661,2.882 -0.963,4.194 -4.753,1.166 -5.221,0.929 -7.733,-3.713 -12.097,6.344 -18.224,6.511 -24.985,0.457 -1.266,0.838 -2.501,2.011 -3.968,2.548 -2.616,0.958 -5.35,2.037 -8.076,2.16 -5.335,0.24 -8.251,-3.01 -7.176,-8.214 0.759,-3.676 2.618,-7.126 4.007,-10.669 0.815,-2.078 2.401,-3.983 1.577,-6.715 -3.142,0.078 -4.971,1.913 -6.641,3.94 -4.104,4.981 -6.546,10.747 -7.87,17.02 -0.203,0.961 -0.345,1.934 -0.502,2.82 -4.932,1.399 -7.839,-0.522 -7.586,-5.145 0.115,-2.097 0.819,-4.222 1.583,-6.208 0.95,-2.473 2.313,-4.783 3.354,-7.225 0.688,-1.614 1.853,-3.271 0.514,-5.123 -6.944,1.551 -11.665,9.113 -14.936,23.878 -4.46,1.593 -5.023,1.34 -8.007,-3.601 -11.698,7.04 -19.599,6.722 -25.615,-0.944 -3.253,1.556 -6.479,3.099 -9.706,4.643 -0.437,0.179 -0.875,0.358 -1.312,0.537 -0.821,0.139 -1.646,0.255 -2.462,0.419 -5.802,1.168 -10.579,-0.169 -13.551,-5.515 -3.327,1.612 -6.435,3.52 -9.802,4.669 -7.955,2.716 -12.271,1.373 -17.548,-4.862 -11.768,7.878 -19.932,8.089 -26.99,0.466 -1.009,0.702 -2.038,1.456 -3.104,2.155 -3.985,2.617 -8.269,4.172 -13.137,3.99 -4.837,-0.181 -9.195,-4.638 -8.744,-9.511 0.304,-3.283 0.826,-6.619 1.847,-9.737 0.744,-2.273 2.46,-4.229 3.866,-6.528 -3.657,-2.329 -7.62117,-3.86857 -11.94975,-4.58825 -0.91786,0.06 -1.43609,-0.14509 -1.94432,-0.15437 -2.33486,-0.0426 -1.88342,-1.4e-4 -3.45121,0.50091 M 335.155,155.099 c 0.851,-0.235 1.702,-0.47 3.112,-0.859 -0.995,-1.303 -1.714,-2.243 -2.432,-3.183 -1.988,-1.285 -3.543,-0.219 -4.79,1.14 -1.213,1.322 -2.404,2.807 -3.097,4.437 -1.866,4.388 -3.467,8.889 -5.143,13.357 -0.085,0.226 0.112,0.558 0.243,1.122 1.261,-0.153 2.549,-0.309 3.243,-0.393 0.644,-3.588 3.821,-4.693 4.937,-7.162 1.281,-2.833 2.616,-5.64 3.927,-8.459 z m -34.062,15.025 c -0.619,-0.115 -1.239,-0.23 -2.183,-0.405 1.142,-1.211 2.017,-2.183 2.939,-3.11 3.474,-3.49 5.516,-7.808 6.988,-12.4 0.295,-0.921 -0.009,-2.896 -0.424,-3.013 -1.077,-0.303 -2.683,-0.243 -3.504,0.402 -1.382,1.086 -2.641,2.588 -3.383,4.18 -2.261,4.852 -4.251,9.831 -6.318,14.693 2.557,2.075 4.095,0.429 5.742,-0.471 0.097,-0.215 0.194,-0.43 0.291,-0.645 -0.05,0.256 -0.099,0.513 -0.148,0.769 z m 58.652,-6.283 c -2.262,-0.982 -4.444,-1.333 -6.037,0.633 -3.155,3.892 -6.135,7.945 -5.376,13.178 0.564,-0.757 1.078,-1.848 1.928,-2.499 1.57,-1.201 3.487,-1.965 4.988,-3.233 2.448,-2.069 5.341,-4.045 4.497,-8.079 z m -96.093,20.409 c 2.879,4.181 3.837,4.646 7.049,3.771 -2.137,-1.143 -4.193,-2.243 -7.049,-3.771 z m 30.361,2.947 c 2.304,2.585 5.183,1.903 8.091,1.033 -2.697,-0.344 -5.394,-0.688 -8.091,-1.033 z m 62.391,0.753 c 2.813,0.176 5.469,-0.023 7.007,-2.892 -2.336,0.964 -4.672,1.928 -7.007,2.892 z m 147.447,-3.136 c 0.249,0.25 0.499,0.5 0.748,0.749 1.737,-1.342 3.572,-2.602 4.101,-4.215 -1.331,0.952 -3.09,2.209 -4.849,3.466 z m -182.011,3.411 c -0.002,0.176 -0.004,0.351 -0.006,0.527 2.474,0 4.948,0 7.423,0 0.002,-0.176 0.003,-0.351 0.005,-0.527 -2.474,0 -4.948,0 -7.422,0 z m 102.098,-4.295 c -0.24,0.27 -0.479,0.539 -0.719,0.809 1.144,1.228 2.064,2.705 4.541,2.445 -1.274,-1.085 -2.548,-2.169 -3.822,-3.254 z m 41.862,2.146 c -0.124,-0.167 -0.277,-0.374 -0.43,-0.581 -0.109,0.102 -0.323,0.225 -0.307,0.302 0.054,0.268 0.188,0.519 0.291,0.777 0.147,-0.165 0.294,-0.328 0.446,-0.498 z"
   id="path3415"
   inkscape:connector-curvature="0"
   style="fill:#ffffff"
   sodipodi:nodetypes="csssscssscsssccccccsccccccccccccscccccccccccccscccccccccccccccccccccccccccccccccccccccccccccccccccccccccccccccccccccccccccccccccccccccccccccccccccccccccccsccccccccccccccccccccccccccccccccccccccccccccccccccccccc" />
		<path
   d="m 494.701,166.975 c -2.258,-0.363 -4.772,0.917 -6.78,-1.054 0.154,-0.061 0.308,-0.124 0.463,-0.184 0.144,-0.056 0.289,-0.11 0.434,-0.165 -1.059,-0.583 -2.142,-1.128 -3.172,-1.759 -1.832,-1.122 -2.268,-2.689 -1.49,-4.522 3.045,0.191 5.95,0.373 8.855,0.555 0.006,-0.094 0.013,-0.187 0.019,-0.281 -0.945,-0.184 -1.89,-0.368 -3.268,-0.636 1.383,-5.032 3.915,-9.101 7.803,-12.298 1.484,-1.22 3.321,-1.678 5.113,-0.628 1.979,1.159 1.788,3.127 1.205,4.877 -0.821,2.463 -1.958,4.821 -3.409,8.298 3.102,-1.633 5.323,-2.803 7.873,-4.145 1.279,2.543 1.014,4.754 -0.751,6.807 -2.044,2.378 -4.721,3.466 -7.803,3.863 -1.724,0.222 -3.397,0.835 -5.092,1.272 z"
   id="path3417"
   inkscape:connector-curvature="0"
   style="fill:#fbfbfb" />
		
		
		<path
   d="m 298.583,180.784 c 4.535,-3.84 8.899,-7.534 13.175,-11.155 0.247,7.275 -4.579,11.474 -13.175,11.155 z"
   id="path3423"
   inkscape:connector-curvature="0"
   style="fill:#f1f1f1" />
		<path
   d="m 475.339,180.286 c 1.983,-6.146 6.256,-11.378 5.744,-18.482 1.082,1.625 1.984,2.98 2.919,4.383 -1.649,5.587 -3.768,10.715 -8.663,14.099 z"
   id="path3425"
   inkscape:connector-curvature="0"
   style="fill:#f4f4f4" />
		<path
   d="m 412.822,181.219 c 0.529,-1.414 0.735,-2.141 1.063,-2.808 1.124,-2.284 2.29,-4.548 3.738,-6.666 0.088,3.668 -0.284,7.107 -4.801,9.474 z"
   id="path3427"
   inkscape:connector-curvature="0"
   style="fill:#dadada" />
		<path
   d="m 440.937,178.511 c -1.432,1.466 -3.172,2.129 -5.341,1.806 1.826,-1.058 3.651,-2.115 5.476,-3.173 -0.045,0.455 -0.09,0.911 -0.135,1.367 z"
   id="path3429"
   inkscape:connector-curvature="0"
   style="fill:none" />
		<path
   d="m 254.023,159.087 c -1.102,0.316 -2.203,0.632 -3.305,0.947 -0.141,-0.407 -0.281,-0.814 -0.422,-1.22 0.835,-0.316 1.67,-0.631 2.505,-0.947 0.407,0.407 0.814,0.813 1.222,1.22 z"
   id="path3431"
   inkscape:connector-curvature="0" />
		<path
   d="m 460.881,163.927 c -0.745,1.365 -1.49,2.729 -2.234,4.094 -0.669,-1.868 0.132,-3.023 1.236,-4.042 0.332,-0.035 0.665,-0.052 0.998,-0.052 z"
   id="path3433"
   inkscape:connector-curvature="0"
   style="fill:#706f6f" />
		<path
   d="m 242.861,158.965 c 0.618,0.249 1.235,0.499 1.853,0.748 -1.966,1.002 -3.419,0.377 -4.771,-0.674 0.973,-0.024 1.946,-0.049 2.918,-0.074 z"
   id="path3435"
   inkscape:connector-curvature="0" />
		<path
   d="m 440.937,178.511 c 0.045,-0.456 0.09,-0.911 0.135,-1.367 0.287,-0.168 0.591,-0.211 0.914,-0.128 l -0.097,-0.097 c -0.318,0.53 -0.635,1.061 -0.952,1.592 z"
   id="path3437"
   inkscape:connector-curvature="0"
   style="fill:#ffffff" />
		<path
   d="m 330.842,189.761 c 0.437,-0.179 0.875,-0.358 1.312,-0.537 -0.437,0.179 -0.875,0.358 -1.312,0.537 z"
   id="path3439"
   inkscape:connector-curvature="0"
   style="fill:#8f8f8f" />
		<path
   d="m 464.915,169.947 c 0.123,-0.25 0.246,-0.501 0.369,-0.751 0.14,0.157 0.281,0.314 0.421,0.472 -0.231,0.127 -0.462,0.254 -0.693,0.381 0,0 -0.097,-0.102 -0.097,-0.102 z"
   id="path3441"
   inkscape:connector-curvature="0"
   style="fill:#ffffff" />
		<path
   d="m 300.949,170 c -1.647,0.9 -3.185,2.545 -5.742,0.471 2.067,-4.862 4.057,-9.841 6.318,-14.693 0.742,-1.592 2.001,-3.093 3.383,-4.18 0.821,-0.645 2.427,-0.706 3.504,-0.402 0.415,0.117 0.719,2.092 0.424,3.013 -1.471,4.592 -3.514,8.91 -6.988,12.4 -0.922,0.926 -1.797,1.899 -2.939,3.11 0.944,0.175 1.564,0.29 2.183,0.405 L 300.949,170 z m -1.096,-5.835 c 3.34,-2.564 5.53,-5.705 6.094,-9.661 -0.324,-0.163 -0.649,-0.326 -0.973,-0.489 -1.707,3.384 -3.414,6.767 -5.121,10.15 z"
   id="path3443"
   inkscape:connector-curvature="0"
   style="fill:#020202" />
		<path
   d="m 335.155,155.099 c -1.311,2.818 -2.646,5.626 -3.927,8.458 -1.116,2.469 -4.293,3.574 -4.937,7.162 -0.694,0.084 -1.982,0.24 -3.243,0.393 -0.131,-0.564 -0.328,-0.896 -0.243,-1.122 1.676,-4.468 3.278,-8.969 5.143,-13.357 0.693,-1.63 1.883,-3.115 3.097,-4.437 1.247,-1.359 2.803,-2.425 4.79,-1.14 -0.226,1.349 -0.453,2.696 -0.68,4.043 z m -2.592,-0.843 c -2.627,2.932 -4.711,6.131 -5.045,10.193 2.352,-3.067 5.025,-5.976 5.045,-10.193 z"
   id="path3445"
   inkscape:connector-curvature="0"
   style="fill:#0d0d0d" />
		<path
   d="m 268.006,179.019 c -2.373,-5.405 -0.52,-10.012 3.155,-13.969 1.781,-1.918 4.321,-1.602 6.553,-1 1.897,0.512 2.249,1.294 1.5,2.129 0,0 -0.214,0.322 -0.453,0.621 -1.753,1.782 -3.709,3.428 -5.224,5.41 -1.457,1.905 -3.282,2.858 -5.668,3.183 0,1.345 0.361,2.567 0.361,3.704 l -0.224,-0.078 z m 1.047,-7.678 c 5.73,-0.955 6.08,-2.924 5.517,-6.126 -1.321,1.533 -4.596,5.058 -5.517,6.126 z"
   id="path3447"
   inkscape:connector-curvature="0" />
		<path
   d="m 359.745,163.841 c 0.844,4.034 -2.049,6.01 -4.497,8.08 -1.5,1.268 -3.418,2.032 -4.988,3.233 -0.85,0.65 -1.363,1.742 -1.928,2.499 -0.76,-5.233 2.22,-9.286 5.376,-13.178 1.593,-1.966 3.775,-1.615 6.037,-0.634 z m -2.626,3.196 c 0.084,-0.802 -0.292,-1.2 -0.604,-1.521 -1.037,1.246 -4.744,5.738 -5.781,6.984 0.267,0.226 2.392,-0.896 3.781,-1.984 1.377,-1.006 1.876,-1.589 2.604,-3.479 z"
   id="path3449"
   inkscape:connector-curvature="0"
   style="fill:#020202" />
		<path
   d="m 427.908,180.001 c -1.527,-5.41 0.914,-12.485 5.298,-15.353 1.842,-1.205 2.713,-1.141 5.364,0.464 -1.228,5.871 -6.963,7.456 -10.781,11.113 0,1.238 0,2.56 0,3.881 l 0.119,-0.105 z m 5.435,-10.462 c 1.145,-0.559 2.264,-1.599 1.424,-3.75 -0.736,1.137 -1.559,2.035 -2.141,2.934 -0.175,0.319 -0.108,0.637 -0.284,0.956 0.321,-0.21 0.681,0.07 1.001,-0.14 z"
   id="path3451"
   inkscape:connector-curvature="0" />
		<path
   d="m 263.652,184.25 c 2.856,1.528 4.912,2.628 7.049,3.771 -3.212,0.875 -4.17,0.41 -7.049,-3.771 z"
   id="path3453"
   inkscape:connector-curvature="0"
   style="fill:#878787" />
		<path
   d="m 294.013,187.197 c 2.697,0.344 5.394,0.689 8.091,1.033 -2.908,0.87 -5.787,1.552 -8.091,-1.033 z"
   id="path3455"
   inkscape:connector-curvature="0"
   style="fill:#909090" />
		<path
   d="m 356.404,187.95 c 2.336,-0.964 4.671,-1.928 7.007,-2.892 -1.538,2.87 -4.195,3.069 -7.007,2.892 z"
   id="path3457"
   inkscape:connector-curvature="0"
   style="fill:#828282" />
		<path
   d="m 503.851,184.814 c 1.759,-1.257 3.518,-2.514 4.849,-3.466 -0.529,1.613 -2.364,2.873 -4.101,4.215 -0.249,-0.249 -0.499,-0.499 -0.748,-0.749 z"
   id="path3459"
   inkscape:connector-curvature="0"
   style="fill:#706f6f" />
		
		<path
   d="m 423.938,183.93 c 1.274,1.085 2.548,2.169 3.822,3.254 -2.477,0.26 -3.398,-1.217 -4.541,-2.445 0.24,-0.27 0.479,-0.539 0.719,-0.809 z"
   id="path3463"
   inkscape:connector-curvature="0"
   style="fill:#747474" />
		<path
   d="m 475.229,186.824 c -0.104,-0.258 -9.2995,0.4285 -9.791,-4.4645 0.51595,7.47178 3.43011,7.79465 9.791,4.4645 z"
   id="path3465"
   inkscape:connector-curvature="0"
   style="fill:#606060"
   sodipodi:nodetypes="ccc" />
		<path
   d="m 301.093,170.124 c 0.049,-0.256 0.098,-0.513 0.147,-0.769 -0.097,0.215 -0.194,0.43 -0.291,0.645 0,0 0.144,0.124 0.144,0.124 z"
   id="path3467"
   inkscape:connector-curvature="0"
   style="fill:#131313" />
		<path
   d="m 298.853,166.165 c 1.707,-3.383 4.414,-8.766 6.121,-12.15 0.324,0.163 0.649,0.326 0.973,0.489 -0.563,3.956 -3.754,9.097 -7.094,11.661 z"
   id="path3469"
   inkscape:connector-curvature="0"
   style="fill:#e7e7e7" />
		<path
   d="m 332.563,154.256 c -0.019,4.217 -3.693,8.126 -6.045,11.193 0.333,-4.062 3.418,-8.261 6.045,-11.193 z"
   id="path3471"
   inkscape:connector-curvature="0"
   style="fill:#f6f6f6" />
		<path
   d="m 432.627,168.723 c 0.581,-0.898 1.405,-1.796 2.141,-2.934 0.84,2.151 -0.085,2.883 -1.229,3.441 -0.267,0.054 -0.889,-0.237 -0.912,-0.507 z"
   id="path3473"
   inkscape:connector-curvature="0"
   style="fill:none" />
		<path
   d="m 433.538,169.439 c -0.32,0.21 -2.687,1.871 -3.007,2.081 0.176,-0.318 1.92,-2.477 2.096,-2.796 0.023,0.269 0.645,0.768 0.911,0.715 z"
   id="path3475"
   inkscape:connector-curvature="0"
   style="fill:#ffffff" />
	<path
   d="m 205.36055,231.46275 c 6.22732,1.78873 13.10471,-5.75849 13.62115,-8.92875 0.30886,1.25821 -0.77852,4.57202 -3.3433,6.88133 -3.08993,2.78215 -6.01991,4.33206 -10.27785,2.04742 z"
   id="path3453-1"
   inkscape:connector-curvature="0"
   style="fill:#878787"
   sodipodi:nodetypes="ccsc" /><path
   d="m 319.34264,187.24344 c 3.572,1.969 9.144,0.439 11.841,0.783 -2.908,0.87 -12.787,2.552 -11.841,-0.783 z"
   id="path3455-7"
   inkscape:connector-curvature="0"
   style="fill:#909090"
   sodipodi:nodetypes="ccc" /></g>
</g>
<path
   d="m 339.48629,151.06119 c 2.697,2.844 7.519,4.439 10.216,4.783 -2.908,0.87 -11.162,-1.448 -10.216,-4.783 z"
   id="path3455-7-4"
   inkscape:connector-curvature="0"
   style="fill:#909090"
   sodipodi:nodetypes="ccc" /><path
   d="m 425.17503,152.34799 c 0.672,0.929 2.343,3.359 4.465,4.412 -3.783,1.507 -5.28,-2.232 -4.465,-4.412 z"
   id="path3378-0"
   inkscape:connector-curvature="0"
   style="fill:#939393"
   sodipodi:nodetypes="ccc" /></svg>